<mxfile host="app.diagrams.net" modified="2023-12-28T09:44:39.665Z" agent="Mozilla/5.0 (Windows NT 10.0; Win64; x64) AppleWebKit/537.36 (KHTML, like Gecko) Chrome/119.0.0.0 Safari/537.36 Edg/119.0.0.0" etag="vVVIaXCn-EgqfswN94sN" version="22.1.15" type="github">
  <diagram name="第 1 页" id="9HHpRyOdOej4GERyZcto">
    <mxGraphModel dx="1002" dy="577" grid="1" gridSize="10" guides="1" tooltips="1" connect="1" arrows="1" fold="1" page="1" pageScale="1" pageWidth="827" pageHeight="1169" math="0" shadow="0">
      <root>
        <mxCell id="0" />
        <mxCell id="1" parent="0" />
        <UserObject label="" plantUmlData="{&#xa;  &quot;data&quot;: &quot;@startuml\n\nclass Task {\n  - id: int\n  - inMemory: boolean\n  - updatable: boolean\n  - type: string\n  - name: string\n  - editor: Editor\n\n  + Task(editor: Editor)\n  + toJSON(): object\n  + fromJSON(json: object): void\n}\n\nclass Editor {\n  // Editor类的属性和方法\n}\n\nTask \&quot;1\&quot; --&gt; \&quot;1\&quot; Editor\n\n@enduml&quot;,&#xa;  &quot;format&quot;: &quot;svg&quot;&#xa;}" id="PgmvUCnNzQ-OiwYf912T-1">
          <mxCell style="shape=image;noLabel=1;verticalAlign=top;aspect=fixed;imageAspect=0;image=data:image/svg+xml,PD94bWwgdmVyc2lvbj0iMS4wIiBlbmNvZGluZz0idXMtYXNjaWkiIHN0YW5kYWxvbmU9Im5vIj8+PHN2ZyB4bWxucz0iaHR0cDovL3d3dy53My5vcmcvMjAwMC9zdmciIHhtbG5zOnhsaW5rPSJodHRwOi8vd3d3LnczLm9yZy8xOTk5L3hsaW5rIiBjb250ZW50U3R5bGVUeXBlPSJ0ZXh0L2NzcyIgaGVpZ2h0PSIzMTlweCIgcHJlc2VydmVBc3BlY3RSYXRpbz0ibm9uZSIgc3R5bGU9IndpZHRoOjI0MHB4O2hlaWdodDozMTlweDtiYWNrZ3JvdW5kOiNGRkZGRkY7IiB2ZXJzaW9uPSIxLjEiIHZpZXdCb3g9IjAgMCAyNDAgMzE5IiB3aWR0aD0iMjQwcHgiIHpvb21BbmRQYW49Im1hZ25pZnkiPjxkZWZzLz48Zz48IS0tY2xhc3MgVGFzay0tPjxnIGlkPSJlbGVtX1Rhc2siPjxyZWN0IGNvZGVMaW5lPSIxIiBmaWxsPSIjRjFGMUYxIiBoZWlnaHQ9IjE4Mi44NTk0IiBpZD0iVGFzayIgcng9IjIuNSIgcnk9IjIuNSIgc3R5bGU9InN0cm9rZTojMTgxODE4O3N0cm9rZS13aWR0aDowLjU7IiB3aWR0aD0iMjI2IiB4PSI3IiB5PSI3Ii8+PGVsbGlwc2UgY3g9IjEwMS43NSIgY3k9IjIzIiBmaWxsPSIjQUREMUIyIiByeD0iMTEiIHJ5PSIxMSIgc3R5bGU9InN0cm9rZTojMTgxODE4O3N0cm9rZS13aWR0aDoxLjA7Ii8+PHBhdGggZD0iTTk5LjM3NSwyNy4yNSBMOTkuMzc1LDI5IEwxMDQuMzEyNSwyOSBMMTA0LjMxMjUsMjcuMjUgTDk5LjM3NSwyNy4yNSBaIE0xMDAuMDYyNSwyNy45Mzc1IFExMDAuMDYyNSwyNy45Mzc1IDEwMC4wNjI1LDE4Ljc1IEw5OC4zMTI1LDE4Ljc1IFE5OC4zMTI1LDE4Ljc1IDk4LjMxMjUsMjcuOTM3NSBMMTAwLjA2MjUsMjcuOTM3NSBaIE0xMDMuNjI1LDI3LjkzNzUgTDEwNS4zNzUsMjcuOTM3NSBRMTA1LjM3NSwyNy45Mzc1IDEwNS4zNzUsMjUuMTI1IEwxMDMuNjI1LDI1LjEyNSBRMTAzLjYyNSwyNS4xMjUgMTAzLjYyNSwyNy45Mzc1IFogTTEwMy42MjUsMTguNzUgUTEwMy42MjUsMTguNzUgMTAzLjYyNSwyMS41NjI1IEwxMDUuMzc1LDIxLjU2MjUgUTEwNS4zNzUsMjEuNTYyNSAxMDUuMzc1LDE4Ljc1IEwxMDMuNjI1LDE4Ljc1IFogTTk5LjM3NSwxOS40Mzc1IEwxMDQuMzEyNSwxOS40Mzc1IEwxMDQuMzEyNSwxNy42ODc1IEw5OS4zNzUsMTcuNjg3NSBMOTkuMzc1LDE5LjQzNzUgWiAiIGZpbGw9IiMwMDAwMDAiLz48dGV4dCBmaWxsPSIjMDAwMDAwIiBmb250LWZhbWlseT0ic2Fucy1zZXJpZiIgZm9udC1zaXplPSIxNCIgbGVuZ3RoQWRqdXN0PSJzcGFjaW5nIiB0ZXh0TGVuZ3RoPSIyOCIgeD0iMTIyLjI1IiB5PSIyOC43NDIyIj5UYXNrPC90ZXh0PjxsaW5lIHN0eWxlPSJzdHJva2U6IzE4MTgxODtzdHJva2Utd2lkdGg6MC41OyIgeDE9IjgiIHgyPSIyMzIiIHkxPSIzOSIgeTI9IjM5Ii8+PHJlY3QgZmlsbD0ibm9uZSIgaGVpZ2h0PSI2IiBzdHlsZT0ic3Ryb2tlOiNDODI5MzA7c3Ryb2tlLXdpZHRoOjEuMDsiIHdpZHRoPSI2IiB4PSIxNSIgeT0iNDguOTkyMiIvPjx0ZXh0IGZpbGw9IiMwMDAwMDAiIGZvbnQtZmFtaWx5PSJzYW5zLXNlcmlmIiBmb250LXNpemU9IjE0IiBsZW5ndGhBZGp1c3Q9InNwYWNpbmciIHRleHRMZW5ndGg9IjQ5IiB4PSIyNyIgeT0iNTYuMjM0NCI+aWQ6IGludDwvdGV4dD48cmVjdCBmaWxsPSJub25lIiBoZWlnaHQ9IjYiIHN0eWxlPSJzdHJva2U6I0M4MjkzMDtzdHJva2Utd2lkdGg6MS4wOyIgd2lkdGg9IjYiIHg9IjE1IiB5PSI2My45NzY2Ii8+PHRleHQgZmlsbD0iIzAwMDAwMCIgZm9udC1mYW1pbHk9InNhbnMtc2VyaWYiIGZvbnQtc2l6ZT0iMTQiIGxlbmd0aEFkanVzdD0ic3BhY2luZyIgdGV4dExlbmd0aD0iMTIwIiB4PSIyNyIgeT0iNzEuMjE4OCI+aW5NZW1vcnk6IGJvb2xlYW48L3RleHQ+PHJlY3QgZmlsbD0ibm9uZSIgaGVpZ2h0PSI2IiBzdHlsZT0ic3Ryb2tlOiNDODI5MzA7c3Ryb2tlLXdpZHRoOjEuMDsiIHdpZHRoPSI2IiB4PSIxNSIgeT0iNzguOTYwOSIvPjx0ZXh0IGZpbGw9IiMwMDAwMDAiIGZvbnQtZmFtaWx5PSJzYW5zLXNlcmlmIiBmb250LXNpemU9IjE0IiBsZW5ndGhBZGp1c3Q9InNwYWNpbmciIHRleHRMZW5ndGg9IjEyNiIgeD0iMjciIHk9Ijg2LjIwMzEiPnVwZGF0YWJsZTogYm9vbGVhbjwvdGV4dD48cmVjdCBmaWxsPSJub25lIiBoZWlnaHQ9IjYiIHN0eWxlPSJzdHJva2U6I0M4MjkzMDtzdHJva2Utd2lkdGg6MS4wOyIgd2lkdGg9IjYiIHg9IjE1IiB5PSI5My45NDUzIi8+PHRleHQgZmlsbD0iIzAwMDAwMCIgZm9udC1mYW1pbHk9InNhbnMtc2VyaWYiIGZvbnQtc2l6ZT0iMTQiIGxlbmd0aEFkanVzdD0ic3BhY2luZyIgdGV4dExlbmd0aD0iODQiIHg9IjI3IiB5PSIxMDEuMTg3NSI+dHlwZTogc3RyaW5nPC90ZXh0PjxyZWN0IGZpbGw9Im5vbmUiIGhlaWdodD0iNiIgc3R5bGU9InN0cm9rZTojQzgyOTMwO3N0cm9rZS13aWR0aDoxLjA7IiB3aWR0aD0iNiIgeD0iMTUiIHk9IjEwOC45Mjk3Ii8+PHRleHQgZmlsbD0iIzAwMDAwMCIgZm9udC1mYW1pbHk9InNhbnMtc2VyaWYiIGZvbnQtc2l6ZT0iMTQiIGxlbmd0aEFkanVzdD0ic3BhY2luZyIgdGV4dExlbmd0aD0iODUiIHg9IjI3IiB5PSIxMTYuMTcxOSI+bmFtZTogc3RyaW5nPC90ZXh0PjxyZWN0IGZpbGw9Im5vbmUiIGhlaWdodD0iNiIgc3R5bGU9InN0cm9rZTojQzgyOTMwO3N0cm9rZS13aWR0aDoxLjA7IiB3aWR0aD0iNiIgeD0iMTUiIHk9IjEyMy45MTQxIi8+PHRleHQgZmlsbD0iIzAwMDAwMCIgZm9udC1mYW1pbHk9InNhbnMtc2VyaWYiIGZvbnQtc2l6ZT0iMTQiIGxlbmd0aEFkanVzdD0ic3BhY2luZyIgdGV4dExlbmd0aD0iOTgiIHg9IjI3IiB5PSIxMzEuMTU2MyI+ZWRpdG9yOiBFZGl0b3I8L3RleHQ+PGxpbmUgc3R5bGU9InN0cm9rZTojMTgxODE4O3N0cm9rZS13aWR0aDowLjU7IiB4MT0iOCIgeDI9IjIzMiIgeTE9IjEzNi45MDYzIiB5Mj0iMTM2LjkwNjMiLz48ZWxsaXBzZSBjeD0iMTgiIGN5PSIxNDkuODk4NCIgZmlsbD0iIzg0QkU4NCIgcng9IjMiIHJ5PSIzIiBzdHlsZT0ic3Ryb2tlOiMwMzgwNDg7c3Ryb2tlLXdpZHRoOjEuMDsiLz48dGV4dCBmaWxsPSIjMDAwMDAwIiBmb250LWZhbWlseT0ic2Fucy1zZXJpZiIgZm9udC1zaXplPSIxNCIgbGVuZ3RoQWRqdXN0PSJzcGFjaW5nIiB0ZXh0TGVuZ3RoPSIxNDIiIHg9IjI3IiB5PSIxNTQuMTQwNiI+VGFzayhlZGl0b3I6IEVkaXRvcik8L3RleHQ+PGVsbGlwc2UgY3g9IjE4IiBjeT0iMTY0Ljg4MjgiIGZpbGw9IiM4NEJFODQiIHJ4PSIzIiByeT0iMyIgc3R5bGU9InN0cm9rZTojMDM4MDQ4O3N0cm9rZS13aWR0aDoxLjA7Ii8+PHRleHQgZmlsbD0iIzAwMDAwMCIgZm9udC1mYW1pbHk9InNhbnMtc2VyaWYiIGZvbnQtc2l6ZT0iMTQiIGxlbmd0aEFkanVzdD0ic3BhY2luZyIgdGV4dExlbmd0aD0iMTE1IiB4PSIyNyIgeT0iMTY5LjEyNSI+dG9KU09OKCk6IG9iamVjdDwvdGV4dD48ZWxsaXBzZSBjeD0iMTgiIGN5PSIxNzkuODY3MiIgZmlsbD0iIzg0QkU4NCIgcng9IjMiIHJ5PSIzIiBzdHlsZT0ic3Ryb2tlOiMwMzgwNDg7c3Ryb2tlLXdpZHRoOjEuMDsiLz48dGV4dCBmaWxsPSIjMDAwMDAwIiBmb250LWZhbWlseT0ic2Fucy1zZXJpZiIgZm9udC1zaXplPSIxNCIgbGVuZ3RoQWRqdXN0PSJzcGFjaW5nIiB0ZXh0TGVuZ3RoPSIyMDAiIHg9IjI3IiB5PSIxODQuMTA5NCI+ZnJvbUpTT04oanNvbjogb2JqZWN0KTogdm9pZDwvdGV4dD48L2c+PCEtLWNsYXNzIEVkaXRvci0tPjxnIGlkPSJlbGVtX0VkaXRvciI+PHJlY3QgY29kZUxpbmU9IjE0IiBmaWxsPSIjRjFGMUYxIiBoZWlnaHQ9IjYyLjk4NDQiIGlkPSJFZGl0b3IiIHJ4PSIyLjUiIHJ5PSIyLjUiIHN0eWxlPSJzdHJva2U6IzE4MTgxODtzdHJva2Utd2lkdGg6MC41OyIgd2lkdGg9IjE3MyIgeD0iMzMuNSIgeT0iMjUwIi8+PGVsbGlwc2UgY3g9Ijk0Ljc1IiBjeT0iMjY2IiBmaWxsPSIjQUREMUIyIiByeD0iMTEiIHJ5PSIxMSIgc3R5bGU9InN0cm9rZTojMTgxODE4O3N0cm9rZS13aWR0aDoxLjA7Ii8+PHBhdGggZD0iTTkyLjM3NSwyNzAuMjUgTDkyLjM3NSwyNzIgTDk3LjMxMjUsMjcyIEw5Ny4zMTI1LDI3MC4yNSBMOTIuMzc1LDI3MC4yNSBaIE05My4wNjI1LDI3MC45Mzc1IFE5My4wNjI1LDI3MC45Mzc1IDkzLjA2MjUsMjYxLjc1IEw5MS4zMTI1LDI2MS43NSBROTEuMzEyNSwyNjEuNzUgOTEuMzEyNSwyNzAuOTM3NSBMOTMuMDYyNSwyNzAuOTM3NSBaIE05Ni42MjUsMjcwLjkzNzUgTDk4LjM3NSwyNzAuOTM3NSBROTguMzc1LDI3MC45Mzc1IDk4LjM3NSwyNjguMTI1IEw5Ni42MjUsMjY4LjEyNSBROTYuNjI1LDI2OC4xMjUgOTYuNjI1LDI3MC45Mzc1IFogTTk2LjYyNSwyNjEuNzUgUTk2LjYyNSwyNjEuNzUgOTYuNjI1LDI2NC41NjI1IEw5OC4zNzUsMjY0LjU2MjUgUTk4LjM3NSwyNjQuNTYyNSA5OC4zNzUsMjYxLjc1IEw5Ni42MjUsMjYxLjc1IFogTTkyLjM3NSwyNjIuNDM3NSBMOTcuMzEyNSwyNjIuNDM3NSBMOTcuMzEyNSwyNjAuNjg3NSBMOTIuMzc1LDI2MC42ODc1IEw5Mi4zNzUsMjYyLjQzNzUgWiAiIGZpbGw9IiMwMDAwMDAiLz48dGV4dCBmaWxsPSIjMDAwMDAwIiBmb250LWZhbWlseT0ic2Fucy1zZXJpZiIgZm9udC1zaXplPSIxNCIgbGVuZ3RoQWRqdXN0PSJzcGFjaW5nIiB0ZXh0TGVuZ3RoPSI0MiIgeD0iMTE1LjI1IiB5PSIyNzEuNzQyMiI+RWRpdG9yPC90ZXh0PjxsaW5lIHN0eWxlPSJzdHJva2U6IzE4MTgxODtzdHJva2Utd2lkdGg6MC41OyIgeDE9IjM0LjUiIHgyPSIyMDUuNSIgeTE9IjI4MiIgeTI9IjI4MiIvPjx0ZXh0IGZpbGw9IiMwMDAwMDAiIGZvbnQtZmFtaWx5PSJzYW5zLXNlcmlmIiBmb250LXNpemU9IjE0IiBsZW5ndGhBZGp1c3Q9InNwYWNpbmciIHRleHRMZW5ndGg9IjE2MSIgeD0iMzkuNSIgeT0iMjk5LjIzNDQiPi8vIEVkaXRvciYjMzE4Njc7JiMzMDM0MDsmIzIzNjQ2OyYjMjQ2MTU7JiMyMTY0NDsmIzI2MDQxOyYjMjc4NjE7PC90ZXh0PjxsaW5lIHN0eWxlPSJzdHJva2U6IzE4MTgxODtzdHJva2Utd2lkdGg6MC41OyIgeDE9IjM0LjUiIHgyPSIyMDUuNSIgeTE9IjMwNC45ODQ0IiB5Mj0iMzA0Ljk4NDQiLz48L2c+PCEtLWxpbmsgVGFzayB0byBFZGl0b3ItLT48ZyBpZD0ibGlua19UYXNrX0VkaXRvciI+PHBhdGggY29kZUxpbmU9IjE4IiBkPSJNMTIwLDE5MC4yNyBDMTIwLDIwOS42IDEyMCwyMjguOTIgMTIwLDI0NC42OSAiIGZpbGw9Im5vbmUiIGlkPSJUYXNrLXRvLUVkaXRvciIgc3R5bGU9InN0cm9rZTojMTgxODE4O3N0cm9rZS13aWR0aDoxLjA7Ii8+PHBvbHlnb24gZmlsbD0iIzE4MTgxOCIgcG9pbnRzPSIxMjAsMjQ5LjksMTI0LDI0MC45LDEyMCwyNDQuOSwxMTYsMjQwLjksMTIwLDI0OS45IiBzdHlsZT0ic3Ryb2tlOiMxODE4MTg7c3Ryb2tlLXdpZHRoOjEuMDsiLz48dGV4dCBmaWxsPSIjMDAwMDAwIiBmb250LWZhbWlseT0ic2Fucy1zZXJpZiIgZm9udC1zaXplPSIxMyIgbGVuZ3RoQWRqdXN0PSJzcGFjaW5nIiB0ZXh0TGVuZ3RoPSI3IiB4PSIxMTIuNzMyIiB5PSIyMTAuMTIzMiI+MTwvdGV4dD48dGV4dCBmaWxsPSIjMDAwMDAwIiBmb250LWZhbWlseT0ic2Fucy1zZXJpZiIgZm9udC1zaXplPSIxMyIgbGVuZ3RoQWRqdXN0PSJzcGFjaW5nIiB0ZXh0TGVuZ3RoPSI3IiB4PSIxMTIuMTkwNiIgeT0iMjQwLjQ4NTkiPjE8L3RleHQ+PC9nPjwhLS1TUkM9W0l5djlCMnZNMjRhaXBiUWV2YjlHcTVOOEpCNUlvQ21oV1IzcFY1RHB5dWlnaEhJSXlsRHBLWEZwbUFBYjFJYzk5T2I5RVFjZW1ZTUwxSzJIdWZBWXBCbnFpNDFVT1l3Z0c2ZkFQYWItYVBNMkF2WmMwZWZmV3N0TUc5TkcxNGtLdjdpNS1famZRNWVmdjJUYmZJUU5XME5KWWw5cG1TOVBuVmJ2QzFjV2FoQnlwMUlrTVl3a1BCMWw4Q1EwX1FFbDMtS3p0eFp4LVFvTWZubGRGTWpPX2RISXB4RGZFdnpqZFdoSTBsUXdhZzZJV2d3azdQWTZnMFMwXS0tPjwvZz48L3N2Zz4=;" vertex="1" parent="1">
            <mxGeometry width="240" height="319" as="geometry" />
          </mxCell>
        </UserObject>
        <UserObject label="" plantUmlData="{&#xa;  &quot;data&quot;: &quot;@startuml\n\nclass Storage {\n  - indexedDB: object\n  - name: string\n  - version: number\n  - database: object\n\n  + init(callback: function): void\n  + get(callback: function): void\n  + set(data: any): void\n  + clear(): void\n}\n\nStorage \&quot;1\&quot; --&gt; \&quot;1\&quot; indexedDB\nStorage \&quot;1\&quot; --&gt; \&quot;1\&quot; name\nStorage \&quot;1\&quot; --&gt; \&quot;1\&quot; version\nStorage \&quot;1\&quot; --&gt; \&quot;1\&quot; database\n\n@enduml&quot;,&#xa;  &quot;format&quot;: &quot;svg&quot;&#xa;}" id="PgmvUCnNzQ-OiwYf912T-2">
          <mxCell style="shape=image;noLabel=1;verticalAlign=top;aspect=fixed;imageAspect=0;image=data:image/svg+xml,PD94bWwgdmVyc2lvbj0iMS4wIiBlbmNvZGluZz0idXMtYXNjaWkiIHN0YW5kYWxvbmU9Im5vIj8+PHN2ZyB4bWxucz0iaHR0cDovL3d3dy53My5vcmcvMjAwMC9zdmciIHhtbG5zOnhsaW5rPSJodHRwOi8vd3d3LnczLm9yZy8xOTk5L3hsaW5rIiBjb250ZW50U3R5bGVUeXBlPSJ0ZXh0L2NzcyIgaGVpZ2h0PSIyOTBweCIgcHJlc2VydmVBc3BlY3RSYXRpbz0ibm9uZSIgc3R5bGU9IndpZHRoOjQ0NHB4O2hlaWdodDoyOTBweDtiYWNrZ3JvdW5kOiNGRkZGRkY7IiB2ZXJzaW9uPSIxLjEiIHZpZXdCb3g9IjAgMCA0NDQgMjkwIiB3aWR0aD0iNDQ0cHgiIHpvb21BbmRQYW49Im1hZ25pZnkiPjxkZWZzLz48Zz48IS0tY2xhc3MgU3RvcmFnZS0tPjxnIGlkPSJlbGVtX1N0b3JhZ2UiPjxyZWN0IGNvZGVMaW5lPSIxIiBmaWxsPSIjRjFGMUYxIiBoZWlnaHQ9IjE2Ny44NzUiIGlkPSJTdG9yYWdlIiByeD0iMi41IiByeT0iMi41IiBzdHlsZT0ic3Ryb2tlOiMxODE4MTg7c3Ryb2tlLXdpZHRoOjAuNTsiIHdpZHRoPSIyMzgiIHg9IjEwMS41IiB5PSI3Ii8+PGVsbGlwc2UgY3g9IjE5MS43NSIgY3k9IjIzIiBmaWxsPSIjQUREMUIyIiByeD0iMTEiIHJ5PSIxMSIgc3R5bGU9InN0cm9rZTojMTgxODE4O3N0cm9rZS13aWR0aDoxLjA7Ii8+PHBhdGggZD0iTTE4OS4zNzUsMjcuMjUgTDE4OS4zNzUsMjkgTDE5NC4zMTI1LDI5IEwxOTQuMzEyNSwyNy4yNSBMMTg5LjM3NSwyNy4yNSBaIE0xOTAuMDYyNSwyNy45Mzc1IFExOTAuMDYyNSwyNy45Mzc1IDE5MC4wNjI1LDE4Ljc1IEwxODguMzEyNSwxOC43NSBRMTg4LjMxMjUsMTguNzUgMTg4LjMxMjUsMjcuOTM3NSBMMTkwLjA2MjUsMjcuOTM3NSBaIE0xOTMuNjI1LDI3LjkzNzUgTDE5NS4zNzUsMjcuOTM3NSBRMTk1LjM3NSwyNy45Mzc1IDE5NS4zNzUsMjUuMTI1IEwxOTMuNjI1LDI1LjEyNSBRMTkzLjYyNSwyNS4xMjUgMTkzLjYyNSwyNy45Mzc1IFogTTE5My42MjUsMTguNzUgUTE5My42MjUsMTguNzUgMTkzLjYyNSwyMS41NjI1IEwxOTUuMzc1LDIxLjU2MjUgUTE5NS4zNzUsMjEuNTYyNSAxOTUuMzc1LDE4Ljc1IEwxOTMuNjI1LDE4Ljc1IFogTTE4OS4zNzUsMTkuNDM3NSBMMTk0LjMxMjUsMTkuNDM3NSBMMTk0LjMxMjUsMTcuNjg3NSBMMTg5LjM3NSwxNy42ODc1IEwxODkuMzc1LDE5LjQzNzUgWiAiIGZpbGw9IiMwMDAwMDAiLz48dGV4dCBmaWxsPSIjMDAwMDAwIiBmb250LWZhbWlseT0ic2Fucy1zZXJpZiIgZm9udC1zaXplPSIxNCIgbGVuZ3RoQWRqdXN0PSJzcGFjaW5nIiB0ZXh0TGVuZ3RoPSI0OSIgeD0iMjEyLjI1IiB5PSIyOC43NDIyIj5TdG9yYWdlPC90ZXh0PjxsaW5lIHN0eWxlPSJzdHJva2U6IzE4MTgxODtzdHJva2Utd2lkdGg6MC41OyIgeDE9IjEwMi41IiB4Mj0iMzM4LjUiIHkxPSIzOSIgeTI9IjM5Ii8+PHJlY3QgZmlsbD0ibm9uZSIgaGVpZ2h0PSI2IiBzdHlsZT0ic3Ryb2tlOiNDODI5MzA7c3Ryb2tlLXdpZHRoOjEuMDsiIHdpZHRoPSI2IiB4PSIxMDkuNSIgeT0iNDguOTkyMiIvPjx0ZXh0IGZpbGw9IiMwMDAwMDAiIGZvbnQtZmFtaWx5PSJzYW5zLXNlcmlmIiBmb250LXNpemU9IjE0IiBsZW5ndGhBZGp1c3Q9InNwYWNpbmciIHRleHRMZW5ndGg9IjExOSIgeD0iMTIxLjUiIHk9IjU2LjIzNDQiPmluZGV4ZWREQjogb2JqZWN0PC90ZXh0PjxyZWN0IGZpbGw9Im5vbmUiIGhlaWdodD0iNiIgc3R5bGU9InN0cm9rZTojQzgyOTMwO3N0cm9rZS13aWR0aDoxLjA7IiB3aWR0aD0iNiIgeD0iMTA5LjUiIHk9IjYzLjk3NjYiLz48dGV4dCBmaWxsPSIjMDAwMDAwIiBmb250LWZhbWlseT0ic2Fucy1zZXJpZiIgZm9udC1zaXplPSIxNCIgbGVuZ3RoQWRqdXN0PSJzcGFjaW5nIiB0ZXh0TGVuZ3RoPSI4NSIgeD0iMTIxLjUiIHk9IjcxLjIxODgiPm5hbWU6IHN0cmluZzwvdGV4dD48cmVjdCBmaWxsPSJub25lIiBoZWlnaHQ9IjYiIHN0eWxlPSJzdHJva2U6I0M4MjkzMDtzdHJva2Utd2lkdGg6MS4wOyIgd2lkdGg9IjYiIHg9IjEwOS41IiB5PSI3OC45NjA5Ii8+PHRleHQgZmlsbD0iIzAwMDAwMCIgZm9udC1mYW1pbHk9InNhbnMtc2VyaWYiIGZvbnQtc2l6ZT0iMTQiIGxlbmd0aEFkanVzdD0ic3BhY2luZyIgdGV4dExlbmd0aD0iMTA2IiB4PSIxMjEuNSIgeT0iODYuMjAzMSI+dmVyc2lvbjogbnVtYmVyPC90ZXh0PjxyZWN0IGZpbGw9Im5vbmUiIGhlaWdodD0iNiIgc3R5bGU9InN0cm9rZTojQzgyOTMwO3N0cm9rZS13aWR0aDoxLjA7IiB3aWR0aD0iNiIgeD0iMTA5LjUiIHk9IjkzLjk0NTMiLz48dGV4dCBmaWxsPSIjMDAwMDAwIiBmb250LWZhbWlseT0ic2Fucy1zZXJpZiIgZm9udC1zaXplPSIxNCIgbGVuZ3RoQWRqdXN0PSJzcGFjaW5nIiB0ZXh0TGVuZ3RoPSIxMTIiIHg9IjEyMS41IiB5PSIxMDEuMTg3NSI+ZGF0YWJhc2U6IG9iamVjdDwvdGV4dD48bGluZSBzdHlsZT0ic3Ryb2tlOiMxODE4MTg7c3Ryb2tlLXdpZHRoOjAuNTsiIHgxPSIxMDIuNSIgeDI9IjMzOC41IiB5MT0iMTA2LjkzNzUiIHkyPSIxMDYuOTM3NSIvPjxlbGxpcHNlIGN4PSIxMTIuNSIgY3k9IjExOS45Mjk3IiBmaWxsPSIjODRCRTg0IiByeD0iMyIgcnk9IjMiIHN0eWxlPSJzdHJva2U6IzAzODA0ODtzdHJva2Utd2lkdGg6MS4wOyIvPjx0ZXh0IGZpbGw9IiMwMDAwMDAiIGZvbnQtZmFtaWx5PSJzYW5zLXNlcmlmIiBmb250LXNpemU9IjE0IiBsZW5ndGhBZGp1c3Q9InNwYWNpbmciIHRleHRMZW5ndGg9IjIxMiIgeD0iMTIxLjUiIHk9IjEyNC4xNzE5Ij5pbml0KGNhbGxiYWNrOiBmdW5jdGlvbik6IHZvaWQ8L3RleHQ+PGVsbGlwc2UgY3g9IjExMi41IiBjeT0iMTM0LjkxNDEiIGZpbGw9IiM4NEJFODQiIHJ4PSIzIiByeT0iMyIgc3R5bGU9InN0cm9rZTojMDM4MDQ4O3N0cm9rZS13aWR0aDoxLjA7Ii8+PHRleHQgZmlsbD0iIzAwMDAwMCIgZm9udC1mYW1pbHk9InNhbnMtc2VyaWYiIGZvbnQtc2l6ZT0iMTQiIGxlbmd0aEFkanVzdD0ic3BhY2luZyIgdGV4dExlbmd0aD0iMjA1IiB4PSIxMjEuNSIgeT0iMTM5LjE1NjMiPmdldChjYWxsYmFjazogZnVuY3Rpb24pOiB2b2lkPC90ZXh0PjxlbGxpcHNlIGN4PSIxMTIuNSIgY3k9IjE0OS44OTg0IiBmaWxsPSIjODRCRTg0IiByeD0iMyIgcnk9IjMiIHN0eWxlPSJzdHJva2U6IzAzODA0ODtzdHJva2Utd2lkdGg6MS4wOyIvPjx0ZXh0IGZpbGw9IiMwMDAwMDAiIGZvbnQtZmFtaWx5PSJzYW5zLXNlcmlmIiBmb250LXNpemU9IjE0IiBsZW5ndGhBZGp1c3Q9InNwYWNpbmciIHRleHRMZW5ndGg9IjE0MiIgeD0iMTIxLjUiIHk9IjE1NC4xNDA2Ij5zZXQoZGF0YTogYW55KTogdm9pZDwvdGV4dD48ZWxsaXBzZSBjeD0iMTEyLjUiIGN5PSIxNjQuODgyOCIgZmlsbD0iIzg0QkU4NCIgcng9IjMiIHJ5PSIzIiBzdHlsZT0ic3Ryb2tlOiMwMzgwNDg7c3Ryb2tlLXdpZHRoOjEuMDsiLz48dGV4dCBmaWxsPSIjMDAwMDAwIiBmb250LWZhbWlseT0ic2Fucy1zZXJpZiIgZm9udC1zaXplPSIxNCIgbGVuZ3RoQWRqdXN0PSJzcGFjaW5nIiB0ZXh0TGVuZ3RoPSI5MyIgeD0iMTIxLjUiIHk9IjE2OS4xMjUiPmNsZWFyKCk6IHZvaWQ8L3RleHQ+PC9nPjwhLS1jbGFzcyBpbmRleGVkREItLT48ZyBpZD0iZWxlbV9pbmRleGVkREIiPjxyZWN0IGZpbGw9IiNGMUYxRjEiIGhlaWdodD0iNDgiIGlkPSJpbmRleGVkREIiIHJ4PSIyLjUiIHJ5PSIyLjUiIHN0eWxlPSJzdHJva2U6IzE4MTgxODtzdHJva2Utd2lkdGg6MC41OyIgd2lkdGg9Ijk1IiB4PSI3IiB5PSIyMzUiLz48ZWxsaXBzZSBjeD0iMjIiIGN5PSIyNTEiIGZpbGw9IiNBREQxQjIiIHJ4PSIxMSIgcnk9IjExIiBzdHlsZT0ic3Ryb2tlOiMxODE4MTg7c3Ryb2tlLXdpZHRoOjEuMDsiLz48cGF0aCBkPSJNMTkuNjI1LDI1NS4yNSBMMTkuNjI1LDI1NyBMMjQuNTYyNSwyNTcgTDI0LjU2MjUsMjU1LjI1IEwxOS42MjUsMjU1LjI1IFogTTIwLjMxMjUsMjU1LjkzNzUgUTIwLjMxMjUsMjU1LjkzNzUgMjAuMzEyNSwyNDYuNzUgTDE4LjU2MjUsMjQ2Ljc1IFExOC41NjI1LDI0Ni43NSAxOC41NjI1LDI1NS45Mzc1IEwyMC4zMTI1LDI1NS45Mzc1IFogTTIzLjg3NSwyNTUuOTM3NSBMMjUuNjI1LDI1NS45Mzc1IFEyNS42MjUsMjU1LjkzNzUgMjUuNjI1LDI1My4xMjUgTDIzLjg3NSwyNTMuMTI1IFEyMy44NzUsMjUzLjEyNSAyMy44NzUsMjU1LjkzNzUgWiBNMjMuODc1LDI0Ni43NSBRMjMuODc1LDI0Ni43NSAyMy44NzUsMjQ5LjU2MjUgTDI1LjYyNSwyNDkuNTYyNSBRMjUuNjI1LDI0OS41NjI1IDI1LjYyNSwyNDYuNzUgTDIzLjg3NSwyNDYuNzUgWiBNMTkuNjI1LDI0Ny40Mzc1IEwyNC41NjI1LDI0Ny40Mzc1IEwyNC41NjI1LDI0NS42ODc1IEwxOS42MjUsMjQ1LjY4NzUgTDE5LjYyNSwyNDcuNDM3NSBaICIgZmlsbD0iIzAwMDAwMCIvPjx0ZXh0IGZpbGw9IiMwMDAwMDAiIGZvbnQtZmFtaWx5PSJzYW5zLXNlcmlmIiBmb250LXNpemU9IjE0IiBsZW5ndGhBZGp1c3Q9InNwYWNpbmciIHRleHRMZW5ndGg9IjYzIiB4PSIzNiIgeT0iMjU2Ljc0MjIiPmluZGV4ZWREQjwvdGV4dD48bGluZSBzdHlsZT0ic3Ryb2tlOiMxODE4MTg7c3Ryb2tlLXdpZHRoOjAuNTsiIHgxPSI4IiB4Mj0iMTAxIiB5MT0iMjY3IiB5Mj0iMjY3Ii8+PGxpbmUgc3R5bGU9InN0cm9rZTojMTgxODE4O3N0cm9rZS13aWR0aDowLjU7IiB4MT0iOCIgeDI9IjEwMSIgeTE9IjI3NSIgeTI9IjI3NSIvPjwvZz48IS0tY2xhc3MgbmFtZS0tPjxnIGlkPSJlbGVtX25hbWUiPjxyZWN0IGZpbGw9IiNGMUYxRjEiIGhlaWdodD0iNDgiIGlkPSJuYW1lIiByeD0iMi41IiByeT0iMi41IiBzdHlsZT0ic3Ryb2tlOiMxODE4MTg7c3Ryb2tlLXdpZHRoOjAuNTsiIHdpZHRoPSI2MSIgeD0iMTM3IiB5PSIyMzUiLz48ZWxsaXBzZSBjeD0iMTUyIiBjeT0iMjUxIiBmaWxsPSIjQUREMUIyIiByeD0iMTEiIHJ5PSIxMSIgc3R5bGU9InN0cm9rZTojMTgxODE4O3N0cm9rZS13aWR0aDoxLjA7Ii8+PHBhdGggZD0iTTE0OS42MjUsMjU1LjI1IEwxNDkuNjI1LDI1NyBMMTU0LjU2MjUsMjU3IEwxNTQuNTYyNSwyNTUuMjUgTDE0OS42MjUsMjU1LjI1IFogTTE1MC4zMTI1LDI1NS45Mzc1IFExNTAuMzEyNSwyNTUuOTM3NSAxNTAuMzEyNSwyNDYuNzUgTDE0OC41NjI1LDI0Ni43NSBRMTQ4LjU2MjUsMjQ2Ljc1IDE0OC41NjI1LDI1NS45Mzc1IEwxNTAuMzEyNSwyNTUuOTM3NSBaIE0xNTMuODc1LDI1NS45Mzc1IEwxNTUuNjI1LDI1NS45Mzc1IFExNTUuNjI1LDI1NS45Mzc1IDE1NS42MjUsMjUzLjEyNSBMMTUzLjg3NSwyNTMuMTI1IFExNTMuODc1LDI1My4xMjUgMTUzLjg3NSwyNTUuOTM3NSBaIE0xNTMuODc1LDI0Ni43NSBRMTUzLjg3NSwyNDYuNzUgMTUzLjg3NSwyNDkuNTYyNSBMMTU1LjYyNSwyNDkuNTYyNSBRMTU1LjYyNSwyNDkuNTYyNSAxNTUuNjI1LDI0Ni43NSBMMTUzLjg3NSwyNDYuNzUgWiBNMTQ5LjYyNSwyNDcuNDM3NSBMMTU0LjU2MjUsMjQ3LjQzNzUgTDE1NC41NjI1LDI0NS42ODc1IEwxNDkuNjI1LDI0NS42ODc1IEwxNDkuNjI1LDI0Ny40Mzc1IFogIiBmaWxsPSIjMDAwMDAwIi8+PHRleHQgZmlsbD0iIzAwMDAwMCIgZm9udC1mYW1pbHk9InNhbnMtc2VyaWYiIGZvbnQtc2l6ZT0iMTQiIGxlbmd0aEFkanVzdD0ic3BhY2luZyIgdGV4dExlbmd0aD0iMjkiIHg9IjE2NiIgeT0iMjU2Ljc0MjIiPm5hbWU8L3RleHQ+PGxpbmUgc3R5bGU9InN0cm9rZTojMTgxODE4O3N0cm9rZS13aWR0aDowLjU7IiB4MT0iMTM4IiB4Mj0iMTk3IiB5MT0iMjY3IiB5Mj0iMjY3Ii8+PGxpbmUgc3R5bGU9InN0cm9rZTojMTgxODE4O3N0cm9rZS13aWR0aDowLjU7IiB4MT0iMTM4IiB4Mj0iMTk3IiB5MT0iMjc1IiB5Mj0iMjc1Ii8+PC9nPjwhLS1jbGFzcyB2ZXJzaW9uLS0+PGcgaWQ9ImVsZW1fdmVyc2lvbiI+PHJlY3QgZmlsbD0iI0YxRjFGMSIgaGVpZ2h0PSI0OCIgaWQ9InZlcnNpb24iIHJ4PSIyLjUiIHJ5PSIyLjUiIHN0eWxlPSJzdHJva2U6IzE4MTgxODtzdHJva2Utd2lkdGg6MC41OyIgd2lkdGg9IjgxIiB4PSIyMzMiIHk9IjIzNSIvPjxlbGxpcHNlIGN4PSIyNDgiIGN5PSIyNTEiIGZpbGw9IiNBREQxQjIiIHJ4PSIxMSIgcnk9IjExIiBzdHlsZT0ic3Ryb2tlOiMxODE4MTg7c3Ryb2tlLXdpZHRoOjEuMDsiLz48cGF0aCBkPSJNMjQ1LjYyNSwyNTUuMjUgTDI0NS42MjUsMjU3IEwyNTAuNTYyNSwyNTcgTDI1MC41NjI1LDI1NS4yNSBMMjQ1LjYyNSwyNTUuMjUgWiBNMjQ2LjMxMjUsMjU1LjkzNzUgUTI0Ni4zMTI1LDI1NS45Mzc1IDI0Ni4zMTI1LDI0Ni43NSBMMjQ0LjU2MjUsMjQ2Ljc1IFEyNDQuNTYyNSwyNDYuNzUgMjQ0LjU2MjUsMjU1LjkzNzUgTDI0Ni4zMTI1LDI1NS45Mzc1IFogTTI0OS44NzUsMjU1LjkzNzUgTDI1MS42MjUsMjU1LjkzNzUgUTI1MS42MjUsMjU1LjkzNzUgMjUxLjYyNSwyNTMuMTI1IEwyNDkuODc1LDI1My4xMjUgUTI0OS44NzUsMjUzLjEyNSAyNDkuODc1LDI1NS45Mzc1IFogTTI0OS44NzUsMjQ2Ljc1IFEyNDkuODc1LDI0Ni43NSAyNDkuODc1LDI0OS41NjI1IEwyNTEuNjI1LDI0OS41NjI1IFEyNTEuNjI1LDI0OS41NjI1IDI1MS42MjUsMjQ2Ljc1IEwyNDkuODc1LDI0Ni43NSBaIE0yNDUuNjI1LDI0Ny40Mzc1IEwyNTAuNTYyNSwyNDcuNDM3NSBMMjUwLjU2MjUsMjQ1LjY4NzUgTDI0NS42MjUsMjQ1LjY4NzUgTDI0NS42MjUsMjQ3LjQzNzUgWiAiIGZpbGw9IiMwMDAwMDAiLz48dGV4dCBmaWxsPSIjMDAwMDAwIiBmb250LWZhbWlseT0ic2Fucy1zZXJpZiIgZm9udC1zaXplPSIxNCIgbGVuZ3RoQWRqdXN0PSJzcGFjaW5nIiB0ZXh0TGVuZ3RoPSI0OSIgeD0iMjYyIiB5PSIyNTYuNzQyMiI+dmVyc2lvbjwvdGV4dD48bGluZSBzdHlsZT0ic3Ryb2tlOiMxODE4MTg7c3Ryb2tlLXdpZHRoOjAuNTsiIHgxPSIyMzQiIHgyPSIzMTMiIHkxPSIyNjciIHkyPSIyNjciLz48bGluZSBzdHlsZT0ic3Ryb2tlOiMxODE4MTg7c3Ryb2tlLXdpZHRoOjAuNTsiIHgxPSIyMzQiIHgyPSIzMTMiIHkxPSIyNzUiIHkyPSIyNzUiLz48L2c+PCEtLWNsYXNzIGRhdGFiYXNlLS0+PGcgaWQ9ImVsZW1fZGF0YWJhc2UiPjxyZWN0IGZpbGw9IiNGMUYxRjEiIGhlaWdodD0iNDgiIGlkPSJkYXRhYmFzZSIgcng9IjIuNSIgcnk9IjIuNSIgc3R5bGU9InN0cm9rZTojMTgxODE4O3N0cm9rZS13aWR0aDowLjU7IiB3aWR0aD0iODgiIHg9IjM0OS41IiB5PSIyMzUiLz48ZWxsaXBzZSBjeD0iMzY0LjUiIGN5PSIyNTEiIGZpbGw9IiNBREQxQjIiIHJ4PSIxMSIgcnk9IjExIiBzdHlsZT0ic3Ryb2tlOiMxODE4MTg7c3Ryb2tlLXdpZHRoOjEuMDsiLz48cGF0aCBkPSJNMzYyLjEyNSwyNTUuMjUgTDM2Mi4xMjUsMjU3IEwzNjcuMDYyNSwyNTcgTDM2Ny4wNjI1LDI1NS4yNSBMMzYyLjEyNSwyNTUuMjUgWiBNMzYyLjgxMjUsMjU1LjkzNzUgUTM2Mi44MTI1LDI1NS45Mzc1IDM2Mi44MTI1LDI0Ni43NSBMMzYxLjA2MjUsMjQ2Ljc1IFEzNjEuMDYyNSwyNDYuNzUgMzYxLjA2MjUsMjU1LjkzNzUgTDM2Mi44MTI1LDI1NS45Mzc1IFogTTM2Ni4zNzUsMjU1LjkzNzUgTDM2OC4xMjUsMjU1LjkzNzUgUTM2OC4xMjUsMjU1LjkzNzUgMzY4LjEyNSwyNTMuMTI1IEwzNjYuMzc1LDI1My4xMjUgUTM2Ni4zNzUsMjUzLjEyNSAzNjYuMzc1LDI1NS45Mzc1IFogTTM2Ni4zNzUsMjQ2Ljc1IFEzNjYuMzc1LDI0Ni43NSAzNjYuMzc1LDI0OS41NjI1IEwzNjguMTI1LDI0OS41NjI1IFEzNjguMTI1LDI0OS41NjI1IDM2OC4xMjUsMjQ2Ljc1IEwzNjYuMzc1LDI0Ni43NSBaIE0zNjIuMTI1LDI0Ny40Mzc1IEwzNjcuMDYyNSwyNDcuNDM3NSBMMzY3LjA2MjUsMjQ1LjY4NzUgTDM2Mi4xMjUsMjQ1LjY4NzUgTDM2Mi4xMjUsMjQ3LjQzNzUgWiAiIGZpbGw9IiMwMDAwMDAiLz48dGV4dCBmaWxsPSIjMDAwMDAwIiBmb250LWZhbWlseT0ic2Fucy1zZXJpZiIgZm9udC1zaXplPSIxNCIgbGVuZ3RoQWRqdXN0PSJzcGFjaW5nIiB0ZXh0TGVuZ3RoPSI1NiIgeD0iMzc4LjUiIHk9IjI1Ni43NDIyIj5kYXRhYmFzZTwvdGV4dD48bGluZSBzdHlsZT0ic3Ryb2tlOiMxODE4MTg7c3Ryb2tlLXdpZHRoOjAuNTsiIHgxPSIzNTAuNSIgeDI9IjQzNi41IiB5MT0iMjY3IiB5Mj0iMjY3Ii8+PGxpbmUgc3R5bGU9InN0cm9rZTojMTgxODE4O3N0cm9rZS13aWR0aDowLjU7IiB4MT0iMzUwLjUiIHgyPSI0MzYuNSIgeTE9IjI3NSIgeTI9IjI3NSIvPjwvZz48IS0tbGluayBTdG9yYWdlIHRvIGluZGV4ZWREQi0tPjxnIGlkPSJsaW5rX1N0b3JhZ2VfaW5kZXhlZERCIj48cGF0aCBjb2RlTGluZT0iMTMiIGQ9Ik0xMzcuNSwxNzUgQzExNy4xOCwxOTUuMzIgOTYuODUsMjE1LjY1IDgxLjQsMjMxLjEgIiBmaWxsPSJub25lIiBpZD0iU3RvcmFnZS10by1pbmRleGVkREIiIHN0eWxlPSJzdHJva2U6IzE4MTgxODtzdHJva2Utd2lkdGg6MS4wOyIvPjxwb2x5Z29uIGZpbGw9IiMxODE4MTgiIHBvaW50cz0iNzcuNTgsMjM0LjkyLDg2Ljc3MjQsMjMxLjM4NDUsODEuMTE1NSwyMzEuMzg0NSw4MS4xMTU1LDIyNS43Mjc2LDc3LjU4LDIzNC45MiIgc3R5bGU9InN0cm9rZTojMTgxODE4O3N0cm9rZS13aWR0aDoxLjA7Ii8+PHRleHQgZmlsbD0iIzAwMDAwMCIgZm9udC1mYW1pbHk9InNhbnMtc2VyaWYiIGZvbnQtc2l6ZT0iMTMiIGxlbmd0aEFkanVzdD0ic3BhY2luZyIgdGV4dExlbmd0aD0iNyIgeD0iMTIzLjA2NjQiIHk9IjE5NS4xMTExIj4xPC90ZXh0Pjx0ZXh0IGZpbGw9IiMwMDAwMDAiIGZvbnQtZmFtaWx5PSJzYW5zLXNlcmlmIiBmb250LXNpemU9IjEzIiBsZW5ndGhBZGp1c3Q9InNwYWNpbmciIHRleHRMZW5ndGg9IjciIHg9Ijc2LjMzMTYiIHk9IjIyNS4zNjA0Ij4xPC90ZXh0PjwvZz48IS0tbGluayBTdG9yYWdlIHRvIG5hbWUtLT48ZyBpZD0ibGlua19TdG9yYWdlX25hbWUiPjxwYXRoIGNvZGVMaW5lPSIxNCIgZD0iTTE5NCwxNzUgQzE4Ny42OCwxOTQuODEgMTgxLjM1LDIxNC42MiAxNzYuNDcsMjI5LjkxICIgZmlsbD0ibm9uZSIgaWQ9IlN0b3JhZ2UtdG8tbmFtZSIgc3R5bGU9InN0cm9rZTojMTgxODE4O3N0cm9rZS13aWR0aDoxLjA7Ii8+PHBvbHlnb24gZmlsbD0iIzE4MTgxOCIgcG9pbnRzPSIxNzQuODcsMjM0LjkyLDE4MS40MjUxLDIyNy41Njk0LDE3Ni4zOTU0LDIzMC4xNTg0LDE3My44MDY1LDIyNS4xMjg3LDE3NC44NywyMzQuOTIiIHN0eWxlPSJzdHJva2U6IzE4MTgxODtzdHJva2Utd2lkdGg6MS4wOyIvPjx0ZXh0IGZpbGw9IiMwMDAwMDAiIGZvbnQtZmFtaWx5PSJzYW5zLXNlcmlmIiBmb250LXNpemU9IjEzIiBsZW5ndGhBZGp1c3Q9InNwYWNpbmciIHRleHRMZW5ndGg9IjciIHg9IjE4NC40MjE5IiB5PSIxOTUuMTExMSI+MTwvdGV4dD48dGV4dCBmaWxsPSIjMDAwMDAwIiBmb250LWZhbWlseT0ic2Fucy1zZXJpZiIgZm9udC1zaXplPSIxMyIgbGVuZ3RoQWRqdXN0PSJzcGFjaW5nIiB0ZXh0TGVuZ3RoPSI3IiB4PSIxNjkuMDA2OCIgeT0iMjI1LjM2MDQiPjE8L3RleHQ+PC9nPjwhLS1saW5rIFN0b3JhZ2UgdG8gdmVyc2lvbi0tPjxnIGlkPSJsaW5rX1N0b3JhZ2VfdmVyc2lvbiI+PHBhdGggY29kZUxpbmU9IjE1IiBkPSJNMjQ3LDE3NSBDMjUzLjMyLDE5NC44MSAyNTkuNjUsMjE0LjYyIDI2NC41MywyMjkuOTEgIiBmaWxsPSJub25lIiBpZD0iU3RvcmFnZS10by12ZXJzaW9uIiBzdHlsZT0ic3Ryb2tlOiMxODE4MTg7c3Ryb2tlLXdpZHRoOjEuMDsiLz48cG9seWdvbiBmaWxsPSIjMTgxODE4IiBwb2ludHM9IjI2Ni4xMywyMzQuOTIsMjY3LjE5MzUsMjI1LjEyODcsMjY0LjYwNDYsMjMwLjE1ODQsMjU5LjU3NDksMjI3LjU2OTQsMjY2LjEzLDIzNC45MiIgc3R5bGU9InN0cm9rZTojMTgxODE4O3N0cm9rZS13aWR0aDoxLjA7Ii8+PHRleHQgZmlsbD0iIzAwMDAwMCIgZm9udC1mYW1pbHk9InNhbnMtc2VyaWYiIGZvbnQtc2l6ZT0iMTMiIGxlbmd0aEFkanVzdD0ic3BhY2luZyIgdGV4dExlbmd0aD0iNyIgeD0iMjQxLjk3NjYiIHk9IjE5NS4xMTExIj4xPC90ZXh0Pjx0ZXh0IGZpbGw9IiMwMDAwMDAiIGZvbnQtZmFtaWx5PSJzYW5zLXNlcmlmIiBmb250LXNpemU9IjEzIiBsZW5ndGhBZGp1c3Q9InNwYWNpbmciIHRleHRMZW5ndGg9IjciIHg9IjI1NS45MzY5IiB5PSIyMjUuMzYwNCI+MTwvdGV4dD48L2c+PCEtLWxpbmsgU3RvcmFnZSB0byBkYXRhYmFzZS0tPjxnIGlkPSJsaW5rX1N0b3JhZ2VfZGF0YWJhc2UiPjxwYXRoIGNvZGVMaW5lPSIxNiIgZD0iTTMwNywxNzUgQzMyOC4xOCwxOTUuMzIgMzQ5LjM2LDIxNS42NSAzNjUuNDYsMjMxLjEgIiBmaWxsPSJub25lIiBpZD0iU3RvcmFnZS10by1kYXRhYmFzZSIgc3R5bGU9InN0cm9rZTojMTgxODE4O3N0cm9rZS13aWR0aDoxLjA7Ii8+PHBvbHlnb24gZmlsbD0iIzE4MTgxOCIgcG9pbnRzPSIzNjkuNDUsMjM0LjkyLDM2NS43MTExLDIyNS44MDg0LDM2NS44MzY4LDIzMS40NjM5LDM2MC4xODEzLDIzMS41ODk2LDM2OS40NSwyMzQuOTIiIHN0eWxlPSJzdHJva2U6IzE4MTgxODtzdHJva2Utd2lkdGg6MS4wOyIvPjx0ZXh0IGZpbGw9IiMwMDAwMDAiIGZvbnQtZmFtaWx5PSJzYW5zLXNlcmlmIiBmb250LXNpemU9IjEzIiBsZW5ndGhBZGp1c3Q9InNwYWNpbmciIHRleHRMZW5ndGg9IjciIHg9IjMwNy4xMzI4IiB5PSIxOTUuMTExMSI+MTwvdGV4dD48dGV4dCBmaWxsPSIjMDAwMDAwIiBmb250LWZhbWlseT0ic2Fucy1zZXJpZiIgZm9udC1zaXplPSIxMyIgbGVuZ3RoQWRqdXN0PSJzcGFjaW5nIiB0ZXh0TGVuZ3RoPSI3IiB4PSIzNTQuMzU3MiIgeT0iMjI1LjM2MDQiPjE8L3RleHQ+PC9nPjwhLS1TUkM9W1hPejEyaThtNDROdEZTTkdMS013UzlrNTJfNDZkYzJJWjI2UUpZMTlZb0JVdEpJT3VZQldRazN6X21VVVNYV1pOOThGUTBYVTdTMDhiWkt6STl6RjBob3lhS2c1Q2F1YThBUFdzSEltSzhaTWltMlU5cWNYQzhxOTlLUlFiZmRreXFFUjFlTkVJTEh0MFRVUExTaEJkTzM1TXJxZ1hsdXJPY3dpeG1LV0Z0eTN2R1ozS0NjeHd3ZkRWLVhYNzhfYlJheERUN0xoMWJfN1BiUFRGbTAwXS0tPjwvZz48L3N2Zz4=;" vertex="1" parent="1">
            <mxGeometry x="240" width="460" height="300.45" as="geometry" />
          </mxCell>
        </UserObject>
        <UserObject label="" plantUmlData="{&#xa;  &quot;data&quot;: &quot;@startuml\n\nclass Selector {\n  - editor: Editor\n  - notifs: Notifs\n\n  + Selector(editor: Editor)\n  + select(object: object): void\n  + deselect(): void\n}\n\nclass Editor {\n  // Editor类的属性和方法\n}\n\nclass Notifs {\n  - intersectionsDetected: Event\n  - objectSelected: Event\n\n  // Notifs类的其他属性和方法\n}\n\nSelector \&quot;1\&quot; --&gt; \&quot;1\&quot; Editor\nSelector \&quot;1\&quot; --&gt; \&quot;1\&quot; Notifs\n\n@enduml&quot;,&#xa;  &quot;format&quot;: &quot;svg&quot;&#xa;}" id="PgmvUCnNzQ-OiwYf912T-3">
          <mxCell style="shape=image;noLabel=1;verticalAlign=top;aspect=fixed;imageAspect=0;image=data:image/svg+xml,PD94bWwgdmVyc2lvbj0iMS4wIiBlbmNvZGluZz0idXMtYXNjaWkiIHN0YW5kYWxvbmU9Im5vIj8+PHN2ZyB4bWxucz0iaHR0cDovL3d3dy53My5vcmcvMjAwMC9zdmciIHhtbG5zOnhsaW5rPSJodHRwOi8vd3d3LnczLm9yZy8xOTk5L3hsaW5rIiBjb250ZW50U3R5bGVUeXBlPSJ0ZXh0L2NzcyIgaGVpZ2h0PSIzMDRweCIgcHJlc2VydmVBc3BlY3RSYXRpbz0ibm9uZSIgc3R5bGU9IndpZHRoOjQ0NHB4O2hlaWdodDozMDRweDtiYWNrZ3JvdW5kOiNGRkZGRkY7IiB2ZXJzaW9uPSIxLjEiIHZpZXdCb3g9IjAgMCA0NDQgMzA0IiB3aWR0aD0iNDQ0cHgiIHpvb21BbmRQYW49Im1hZ25pZnkiPjxkZWZzLz48Zz48IS0tY2xhc3MgU2VsZWN0b3ItLT48ZyBpZD0iZWxlbV9TZWxlY3RvciI+PHJlY3QgY29kZUxpbmU9IjEiIGZpbGw9IiNGMUYxRjEiIGhlaWdodD0iMTIyLjkyMTkiIGlkPSJTZWxlY3RvciIgcng9IjIuNSIgcnk9IjIuNSIgc3R5bGU9InN0cm9rZTojMTgxODE4O3N0cm9rZS13aWR0aDowLjU7IiB3aWR0aD0iMjI0IiB4PSI5Ny41IiB5PSI3Ii8+PGVsbGlwc2UgY3g9IjE3Ny4yNSIgY3k9IjIzIiBmaWxsPSIjQUREMUIyIiByeD0iMTEiIHJ5PSIxMSIgc3R5bGU9InN0cm9rZTojMTgxODE4O3N0cm9rZS13aWR0aDoxLjA7Ii8+PHBhdGggZD0iTTE3NC44NzUsMjcuMjUgTDE3NC44NzUsMjkgTDE3OS44MTI1LDI5IEwxNzkuODEyNSwyNy4yNSBMMTc0Ljg3NSwyNy4yNSBaIE0xNzUuNTYyNSwyNy45Mzc1IFExNzUuNTYyNSwyNy45Mzc1IDE3NS41NjI1LDE4Ljc1IEwxNzMuODEyNSwxOC43NSBRMTczLjgxMjUsMTguNzUgMTczLjgxMjUsMjcuOTM3NSBMMTc1LjU2MjUsMjcuOTM3NSBaIE0xNzkuMTI1LDI3LjkzNzUgTDE4MC44NzUsMjcuOTM3NSBRMTgwLjg3NSwyNy45Mzc1IDE4MC44NzUsMjUuMTI1IEwxNzkuMTI1LDI1LjEyNSBRMTc5LjEyNSwyNS4xMjUgMTc5LjEyNSwyNy45Mzc1IFogTTE3OS4xMjUsMTguNzUgUTE3OS4xMjUsMTguNzUgMTc5LjEyNSwyMS41NjI1IEwxODAuODc1LDIxLjU2MjUgUTE4MC44NzUsMjEuNTYyNSAxODAuODc1LDE4Ljc1IEwxNzkuMTI1LDE4Ljc1IFogTTE3NC44NzUsMTkuNDM3NSBMMTc5LjgxMjUsMTkuNDM3NSBMMTc5LjgxMjUsMTcuNjg3NSBMMTc0Ljg3NSwxNy42ODc1IEwxNzQuODc1LDE5LjQzNzUgWiAiIGZpbGw9IiMwMDAwMDAiLz48dGV4dCBmaWxsPSIjMDAwMDAwIiBmb250LWZhbWlseT0ic2Fucy1zZXJpZiIgZm9udC1zaXplPSIxNCIgbGVuZ3RoQWRqdXN0PSJzcGFjaW5nIiB0ZXh0TGVuZ3RoPSI1NiIgeD0iMTk3Ljc1IiB5PSIyOC43NDIyIj5TZWxlY3RvcjwvdGV4dD48bGluZSBzdHlsZT0ic3Ryb2tlOiMxODE4MTg7c3Ryb2tlLXdpZHRoOjAuNTsiIHgxPSI5OC41IiB4Mj0iMzIwLjUiIHkxPSIzOSIgeTI9IjM5Ii8+PHJlY3QgZmlsbD0ibm9uZSIgaGVpZ2h0PSI2IiBzdHlsZT0ic3Ryb2tlOiNDODI5MzA7c3Ryb2tlLXdpZHRoOjEuMDsiIHdpZHRoPSI2IiB4PSIxMDUuNSIgeT0iNDguOTkyMiIvPjx0ZXh0IGZpbGw9IiMwMDAwMDAiIGZvbnQtZmFtaWx5PSJzYW5zLXNlcmlmIiBmb250LXNpemU9IjE0IiBsZW5ndGhBZGp1c3Q9InNwYWNpbmciIHRleHRMZW5ndGg9Ijk4IiB4PSIxMTcuNSIgeT0iNTYuMjM0NCI+ZWRpdG9yOiBFZGl0b3I8L3RleHQ+PHJlY3QgZmlsbD0ibm9uZSIgaGVpZ2h0PSI2IiBzdHlsZT0ic3Ryb2tlOiNDODI5MzA7c3Ryb2tlLXdpZHRoOjEuMDsiIHdpZHRoPSI2IiB4PSIxMDUuNSIgeT0iNjMuOTc2NiIvPjx0ZXh0IGZpbGw9IiMwMDAwMDAiIGZvbnQtZmFtaWx5PSJzYW5zLXNlcmlmIiBmb250LXNpemU9IjE0IiBsZW5ndGhBZGp1c3Q9InNwYWNpbmciIHRleHRMZW5ndGg9Ijk4IiB4PSIxMTcuNSIgeT0iNzEuMjE4OCI+bm90aWZzOiBOb3RpZnM8L3RleHQ+PGxpbmUgc3R5bGU9InN0cm9rZTojMTgxODE4O3N0cm9rZS13aWR0aDowLjU7IiB4MT0iOTguNSIgeDI9IjMyMC41IiB5MT0iNzYuOTY4OCIgeTI9Ijc2Ljk2ODgiLz48ZWxsaXBzZSBjeD0iMTA4LjUiIGN5PSI4OS45NjA5IiBmaWxsPSIjODRCRTg0IiByeD0iMyIgcnk9IjMiIHN0eWxlPSJzdHJva2U6IzAzODA0ODtzdHJva2Utd2lkdGg6MS4wOyIvPjx0ZXh0IGZpbGw9IiMwMDAwMDAiIGZvbnQtZmFtaWx5PSJzYW5zLXNlcmlmIiBmb250LXNpemU9IjE0IiBsZW5ndGhBZGp1c3Q9InNwYWNpbmciIHRleHRMZW5ndGg9IjE3MCIgeD0iMTE3LjUiIHk9Ijk0LjIwMzEiPlNlbGVjdG9yKGVkaXRvcjogRWRpdG9yKTwvdGV4dD48ZWxsaXBzZSBjeD0iMTA4LjUiIGN5PSIxMDQuOTQ1MyIgZmlsbD0iIzg0QkU4NCIgcng9IjMiIHJ5PSIzIiBzdHlsZT0ic3Ryb2tlOiMwMzgwNDg7c3Ryb2tlLXdpZHRoOjEuMDsiLz48dGV4dCBmaWxsPSIjMDAwMDAwIiBmb250LWZhbWlseT0ic2Fucy1zZXJpZiIgZm9udC1zaXplPSIxNCIgbGVuZ3RoQWRqdXN0PSJzcGFjaW5nIiB0ZXh0TGVuZ3RoPSIxOTgiIHg9IjExNy41IiB5PSIxMDkuMTg3NSI+c2VsZWN0KG9iamVjdDogb2JqZWN0KTogdm9pZDwvdGV4dD48ZWxsaXBzZSBjeD0iMTA4LjUiIGN5PSIxMTkuOTI5NyIgZmlsbD0iIzg0QkU4NCIgcng9IjMiIHJ5PSIzIiBzdHlsZT0ic3Ryb2tlOiMwMzgwNDg7c3Ryb2tlLXdpZHRoOjEuMDsiLz48dGV4dCBmaWxsPSIjMDAwMDAwIiBmb250LWZhbWlseT0ic2Fucy1zZXJpZiIgZm9udC1zaXplPSIxNCIgbGVuZ3RoQWRqdXN0PSJzcGFjaW5nIiB0ZXh0TGVuZ3RoPSIxMTQiIHg9IjExNy41IiB5PSIxMjQuMTcxOSI+ZGVzZWxlY3QoKTogdm9pZDwvdGV4dD48L2c+PCEtLWNsYXNzIEVkaXRvci0tPjxnIGlkPSJlbGVtX0VkaXRvciI+PHJlY3QgY29kZUxpbmU9IjEwIiBmaWxsPSIjRjFGMUYxIiBoZWlnaHQ9IjYyLjk4NDQiIGlkPSJFZGl0b3IiIHJ4PSIyLjUiIHJ5PSIyLjUiIHN0eWxlPSJzdHJva2U6IzE4MTgxODtzdHJva2Utd2lkdGg6MC41OyIgd2lkdGg9IjE3MyIgeD0iNyIgeT0iMjEyLjUiLz48ZWxsaXBzZSBjeD0iNjguMjUiIGN5PSIyMjguNSIgZmlsbD0iI0FERDFCMiIgcng9IjExIiByeT0iMTEiIHN0eWxlPSJzdHJva2U6IzE4MTgxODtzdHJva2Utd2lkdGg6MS4wOyIvPjxwYXRoIGQ9Ik02NS44NzUsMjMyLjc1IEw2NS44NzUsMjM0LjUgTDcwLjgxMjUsMjM0LjUgTDcwLjgxMjUsMjMyLjc1IEw2NS44NzUsMjMyLjc1IFogTTY2LjU2MjUsMjMzLjQzNzUgUTY2LjU2MjUsMjMzLjQzNzUgNjYuNTYyNSwyMjQuMjUgTDY0LjgxMjUsMjI0LjI1IFE2NC44MTI1LDIyNC4yNSA2NC44MTI1LDIzMy40Mzc1IEw2Ni41NjI1LDIzMy40Mzc1IFogTTcwLjEyNSwyMzMuNDM3NSBMNzEuODc1LDIzMy40Mzc1IFE3MS44NzUsMjMzLjQzNzUgNzEuODc1LDIzMC42MjUgTDcwLjEyNSwyMzAuNjI1IFE3MC4xMjUsMjMwLjYyNSA3MC4xMjUsMjMzLjQzNzUgWiBNNzAuMTI1LDIyNC4yNSBRNzAuMTI1LDIyNC4yNSA3MC4xMjUsMjI3LjA2MjUgTDcxLjg3NSwyMjcuMDYyNSBRNzEuODc1LDIyNy4wNjI1IDcxLjg3NSwyMjQuMjUgTDcwLjEyNSwyMjQuMjUgWiBNNjUuODc1LDIyNC45Mzc1IEw3MC44MTI1LDIyNC45Mzc1IEw3MC44MTI1LDIyMy4xODc1IEw2NS44NzUsMjIzLjE4NzUgTDY1Ljg3NSwyMjQuOTM3NSBaICIgZmlsbD0iIzAwMDAwMCIvPjx0ZXh0IGZpbGw9IiMwMDAwMDAiIGZvbnQtZmFtaWx5PSJzYW5zLXNlcmlmIiBmb250LXNpemU9IjE0IiBsZW5ndGhBZGp1c3Q9InNwYWNpbmciIHRleHRMZW5ndGg9IjQyIiB4PSI4OC43NSIgeT0iMjM0LjI0MjIiPkVkaXRvcjwvdGV4dD48bGluZSBzdHlsZT0ic3Ryb2tlOiMxODE4MTg7c3Ryb2tlLXdpZHRoOjAuNTsiIHgxPSI4IiB4Mj0iMTc5IiB5MT0iMjQ0LjUiIHkyPSIyNDQuNSIvPjx0ZXh0IGZpbGw9IiMwMDAwMDAiIGZvbnQtZmFtaWx5PSJzYW5zLXNlcmlmIiBmb250LXNpemU9IjE0IiBsZW5ndGhBZGp1c3Q9InNwYWNpbmciIHRleHRMZW5ndGg9IjE2MSIgeD0iMTMiIHk9IjI2MS43MzQ0Ij4vLyBFZGl0b3ImIzMxODY3OyYjMzAzNDA7JiMyMzY0NjsmIzI0NjE1OyYjMjE2NDQ7JiMyNjA0MTsmIzI3ODYxOzwvdGV4dD48bGluZSBzdHlsZT0ic3Ryb2tlOiMxODE4MTg7c3Ryb2tlLXdpZHRoOjAuNTsiIHgxPSI4IiB4Mj0iMTc5IiB5MT0iMjY3LjQ4NDQiIHkyPSIyNjcuNDg0NCIvPjwvZz48IS0tY2xhc3MgTm90aWZzLS0+PGcgaWQ9ImVsZW1fTm90aWZzIj48cmVjdCBjb2RlTGluZT0iMTQiIGZpbGw9IiNGMUYxRjEiIGhlaWdodD0iMTA3LjkzNzUiIGlkPSJOb3RpZnMiIHJ4PSIyLjUiIHJ5PSIyLjUiIHN0eWxlPSJzdHJva2U6IzE4MTgxODtzdHJva2Utd2lkdGg6MC41OyIgd2lkdGg9IjIyMiIgeD0iMjE1LjUiIHk9IjE5MCIvPjxlbGxpcHNlIGN4PSIzMDEuMjUiIGN5PSIyMDYiIGZpbGw9IiNBREQxQjIiIHJ4PSIxMSIgcnk9IjExIiBzdHlsZT0ic3Ryb2tlOiMxODE4MTg7c3Ryb2tlLXdpZHRoOjEuMDsiLz48cGF0aCBkPSJNMjk4Ljg3NSwyMTAuMjUgTDI5OC44NzUsMjEyIEwzMDMuODEyNSwyMTIgTDMwMy44MTI1LDIxMC4yNSBMMjk4Ljg3NSwyMTAuMjUgWiBNMjk5LjU2MjUsMjEwLjkzNzUgUTI5OS41NjI1LDIxMC45Mzc1IDI5OS41NjI1LDIwMS43NSBMMjk3LjgxMjUsMjAxLjc1IFEyOTcuODEyNSwyMDEuNzUgMjk3LjgxMjUsMjEwLjkzNzUgTDI5OS41NjI1LDIxMC45Mzc1IFogTTMwMy4xMjUsMjEwLjkzNzUgTDMwNC44NzUsMjEwLjkzNzUgUTMwNC44NzUsMjEwLjkzNzUgMzA0Ljg3NSwyMDguMTI1IEwzMDMuMTI1LDIwOC4xMjUgUTMwMy4xMjUsMjA4LjEyNSAzMDMuMTI1LDIxMC45Mzc1IFogTTMwMy4xMjUsMjAxLjc1IFEzMDMuMTI1LDIwMS43NSAzMDMuMTI1LDIwNC41NjI1IEwzMDQuODc1LDIwNC41NjI1IFEzMDQuODc1LDIwNC41NjI1IDMwNC44NzUsMjAxLjc1IEwzMDMuMTI1LDIwMS43NSBaIE0yOTguODc1LDIwMi40Mzc1IEwzMDMuODEyNSwyMDIuNDM3NSBMMzAzLjgxMjUsMjAwLjY4NzUgTDI5OC44NzUsMjAwLjY4NzUgTDI5OC44NzUsMjAyLjQzNzUgWiAiIGZpbGw9IiMwMDAwMDAiLz48dGV4dCBmaWxsPSIjMDAwMDAwIiBmb250LWZhbWlseT0ic2Fucy1zZXJpZiIgZm9udC1zaXplPSIxNCIgbGVuZ3RoQWRqdXN0PSJzcGFjaW5nIiB0ZXh0TGVuZ3RoPSI0MiIgeD0iMzIxLjc1IiB5PSIyMTEuNzQyMiI+Tm90aWZzPC90ZXh0PjxsaW5lIHN0eWxlPSJzdHJva2U6IzE4MTgxODtzdHJva2Utd2lkdGg6MC41OyIgeDE9IjIxNi41IiB4Mj0iNDM2LjUiIHkxPSIyMjIiIHkyPSIyMjIiLz48cmVjdCBmaWxsPSJub25lIiBoZWlnaHQ9IjYiIHN0eWxlPSJzdHJva2U6I0M4MjkzMDtzdHJva2Utd2lkdGg6MS4wOyIgd2lkdGg9IjYiIHg9IjIyMy41IiB5PSIyMzEuOTkyMiIvPjx0ZXh0IGZpbGw9IiMwMDAwMDAiIGZvbnQtZmFtaWx5PSJzYW5zLXNlcmlmIiBmb250LXNpemU9IjE0IiBsZW5ndGhBZGp1c3Q9InNwYWNpbmciIHRleHRMZW5ndGg9IjE5NiIgeD0iMjM1LjUiIHk9IjIzOS4yMzQ0Ij5pbnRlcnNlY3Rpb25zRGV0ZWN0ZWQ6IEV2ZW50PC90ZXh0PjxyZWN0IGZpbGw9Im5vbmUiIGhlaWdodD0iNiIgc3R5bGU9InN0cm9rZTojQzgyOTMwO3N0cm9rZS13aWR0aDoxLjA7IiB3aWR0aD0iNiIgeD0iMjIzLjUiIHk9IjI0Ni45NzY2Ii8+PHRleHQgZmlsbD0iIzAwMDAwMCIgZm9udC1mYW1pbHk9InNhbnMtc2VyaWYiIGZvbnQtc2l6ZT0iMTQiIGxlbmd0aEFkanVzdD0ic3BhY2luZyIgdGV4dExlbmd0aD0iMTQ3IiB4PSIyMzUuNSIgeT0iMjU0LjIxODgiPm9iamVjdFNlbGVjdGVkOiBFdmVudDwvdGV4dD48dGV4dCBmaWxsPSIjMDAwMDAwIiBmb250LWZhbWlseT0ic2Fucy1zZXJpZiIgZm9udC1zaXplPSIxNCIgbGVuZ3RoQWRqdXN0PSJzcGFjaW5nIiB0ZXh0TGVuZ3RoPSI3IiB4PSIyMzUuNSIgeT0iMjY5LjIwMzEiPiYjMTYwOzwvdGV4dD48dGV4dCBmaWxsPSIjMDAwMDAwIiBmb250LWZhbWlseT0ic2Fucy1zZXJpZiIgZm9udC1zaXplPSIxNCIgbGVuZ3RoQWRqdXN0PSJzcGFjaW5nIiB0ZXh0TGVuZ3RoPSIxODkiIHg9IjIzNS41IiB5PSIyODQuMTg3NSI+Ly8gTm90aWZzJiMzMTg2NzsmIzMwMzQwOyYjMjA4NTQ7JiMyMDE4MjsmIzIzNjQ2OyYjMjQ2MTU7JiMyMTY0NDsmIzI2MDQxOyYjMjc4NjE7PC90ZXh0PjxsaW5lIHN0eWxlPSJzdHJva2U6IzE4MTgxODtzdHJva2Utd2lkdGg6MC41OyIgeDE9IjIxNi41IiB4Mj0iNDM2LjUiIHkxPSIyODkuOTM3NSIgeTI9IjI4OS45Mzc1Ii8+PC9nPjwhLS1saW5rIFNlbGVjdG9yIHRvIEVkaXRvci0tPjxnIGlkPSJsaW5rX1NlbGVjdG9yX0VkaXRvciI+PHBhdGggY29kZUxpbmU9IjIxIiBkPSJNMTY4LjkzLDEzMC4xOCBDMTUxLjUzLDE1Ni4yIDEzMS44MywxODUuNjcgMTE2LjkzLDIwNy45NiAiIGZpbGw9Im5vbmUiIGlkPSJTZWxlY3Rvci10by1FZGl0b3IiIHN0eWxlPSJzdHJva2U6IzE4MTgxODtzdHJva2Utd2lkdGg6MS4wOyIvPjxwb2x5Z29uIGZpbGw9IiMxODE4MTgiIHBvaW50cz0iMTE0LjAxLDIxMi4zMiwxMjIuMzMwNSwyMDcuMDUwMywxMTYuNzgzNSwyMDguMTU5NywxMTUuNjc0MSwyMDIuNjEyNywxMTQuMDEsMjEyLjMyIiBzdHlsZT0ic3Ryb2tlOiMxODE4MTg7c3Ryb2tlLXdpZHRoOjEuMDsiLz48dGV4dCBmaWxsPSIjMDAwMDAwIiBmb250LWZhbWlseT0ic2Fucy1zZXJpZiIgZm9udC1zaXplPSIxMyIgbGVuZ3RoQWRqdXN0PSJzcGFjaW5nIiB0ZXh0TGVuZ3RoPSI3IiB4PSIxNTYuODM0NCIgeT0iMTUwLjQwOTciPjE8L3RleHQ+PHRleHQgZmlsbD0iIzAwMDAwMCIgZm9udC1mYW1pbHk9InNhbnMtc2VyaWYiIGZvbnQtc2l6ZT0iMTMiIGxlbmd0aEFkanVzdD0ic3BhY2luZyIgdGV4dExlbmd0aD0iNyIgeD0iMTEwLjk0MzYiIHk9IjIwMi44ODc0Ij4xPC90ZXh0PjwvZz48IS0tbGluayBTZWxlY3RvciB0byBOb3RpZnMtLT48ZyBpZD0ibGlua19TZWxlY3Rvcl9Ob3RpZnMiPjxwYXRoIGNvZGVMaW5lPSIyMiIgZD0iTTI1MC40MiwxMzAuMTggQzI2Mi41MSwxNDguMTEgMjc1LjcsMTY3LjY3IDI4Ny42NiwxODUuNCAiIGZpbGw9Im5vbmUiIGlkPSJTZWxlY3Rvci10by1Ob3RpZnMiIHN0eWxlPSJzdHJva2U6IzE4MTgxODtzdHJva2Utd2lkdGg6MS4wOyIvPjxwb2x5Z29uIGZpbGw9IiMxODE4MTgiIHBvaW50cz0iMjkwLjY3LDE4OS44NiwyODguOTQ0NCwxODAuMTYzNSwyODcuODcwMiwxODUuNzE3NCwyODIuMzE2MywxODQuNjQzMiwyOTAuNjcsMTg5Ljg2IiBzdHlsZT0ic3Ryb2tlOiMxODE4MTg7c3Ryb2tlLXdpZHRoOjEuMDsiLz48dGV4dCBmaWxsPSIjMDAwMDAwIiBmb250LWZhbWlseT0ic2Fucy1zZXJpZiIgZm9udC1zaXplPSIxMyIgbGVuZ3RoQWRqdXN0PSJzcGFjaW5nIiB0ZXh0TGVuZ3RoPSI3IiB4PSIyNDcuNzQ2NyIgeT0iMTUwLjQwOTciPjE8L3RleHQ+PHRleHQgZmlsbD0iIzAwMDAwMCIgZm9udC1mYW1pbHk9InNhbnMtc2VyaWYiIGZvbnQtc2l6ZT0iMTMiIGxlbmd0aEFkanVzdD0ic3BhY2luZyIgdGV4dExlbmd0aD0iNyIgeD0iMjc3Ljg5MzQiIHk9IjE4MC4zMTQzIj4xPC90ZXh0PjwvZz48IS0tU1JDPVtJeXY5QjJ2TTI0eERJS3Frb0l6SWdFUElLRDFMSTR0OTE3QWk1NXAxRDVXZUJ4eWFDd3RPSWk0Rko3QzFuUkpYa1pIR3JNazI5T2wxYVhodklMYjBvYWUxR2NqUUFQSmJQd1EwNVFJYUdmTjAxNmt2azlCMWhlNE8wdFFCbFp3S3p0cFp4a1VwTWZ2a2RGVWlPVmRKSUp0RmZrcnlqZGFnR1dsNE1MM2RQLVFMZjFPTDB1dEVwQ3loVGFhajBSOUlLdTJrQXFsREFtNGhXM1c2dWRvNDNDR3dZNGJHd3JndEZUYXozT2tieUYxSUNiSElxRE1yMHpGR3FDOGcxcDRMMDAwMF0tLT48L2c+PC9zdmc+;" vertex="1" parent="1">
            <mxGeometry y="319" width="444" height="304" as="geometry" />
          </mxCell>
        </UserObject>
        <UserObject label="" plantUmlData="{&#xa;  &quot;data&quot;: &quot;@startuml\n\nclass Loader {\n  - texturePath: string\n\n  + loadFile(file: File, manager: object): void\n}\n\nclass AddObjectTask {\n  // AddObjectTask类的属性和方法\n}\n\nLoader \&quot;1\&quot; --&gt; \&quot;1\&quot; AddObjectTask\n\n@enduml&quot;,&#xa;  &quot;format&quot;: &quot;svg&quot;&#xa;}" id="PgmvUCnNzQ-OiwYf912T-4">
          <mxCell style="shape=image;noLabel=1;verticalAlign=top;aspect=fixed;imageAspect=0;image=data:image/svg+xml,PD94bWwgdmVyc2lvbj0iMS4wIiBlbmNvZGluZz0idXMtYXNjaWkiIHN0YW5kYWxvbmU9Im5vIj8+PHN2ZyB4bWxucz0iaHR0cDovL3d3dy53My5vcmcvMjAwMC9zdmciIHhtbG5zOnhsaW5rPSJodHRwOi8vd3d3LnczLm9yZy8xOTk5L3hsaW5rIiBjb250ZW50U3R5bGVUeXBlPSJ0ZXh0L2NzcyIgaGVpZ2h0PSIyMTRweCIgcHJlc2VydmVBc3BlY3RSYXRpbz0ibm9uZSIgc3R5bGU9IndpZHRoOjM0NHB4O2hlaWdodDoyMTRweDtiYWNrZ3JvdW5kOiNGRkZGRkY7IiB2ZXJzaW9uPSIxLjEiIHZpZXdCb3g9IjAgMCAzNDQgMjE0IiB3aWR0aD0iMzQ0cHgiIHpvb21BbmRQYW49Im1hZ25pZnkiPjxkZWZzLz48Zz48IS0tY2xhc3MgTG9hZGVyLS0+PGcgaWQ9ImVsZW1fTG9hZGVyIj48cmVjdCBjb2RlTGluZT0iMSIgZmlsbD0iI0YxRjFGMSIgaGVpZ2h0PSI3Ny45Njg4IiBpZD0iTG9hZGVyIiByeD0iMi41IiByeT0iMi41IiBzdHlsZT0ic3Ryb2tlOiMxODE4MTg7c3Ryb2tlLXdpZHRoOjAuNTsiIHdpZHRoPSIzMzAiIHg9IjciIHk9IjciLz48ZWxsaXBzZSBjeD0iMTQ2Ljc1IiBjeT0iMjMiIGZpbGw9IiNBREQxQjIiIHJ4PSIxMSIgcnk9IjExIiBzdHlsZT0ic3Ryb2tlOiMxODE4MTg7c3Ryb2tlLXdpZHRoOjEuMDsiLz48cGF0aCBkPSJNMTQ0LjM3NSwyNy4yNSBMMTQ0LjM3NSwyOSBMMTQ5LjMxMjUsMjkgTDE0OS4zMTI1LDI3LjI1IEwxNDQuMzc1LDI3LjI1IFogTTE0NS4wNjI1LDI3LjkzNzUgUTE0NS4wNjI1LDI3LjkzNzUgMTQ1LjA2MjUsMTguNzUgTDE0My4zMTI1LDE4Ljc1IFExNDMuMzEyNSwxOC43NSAxNDMuMzEyNSwyNy45Mzc1IEwxNDUuMDYyNSwyNy45Mzc1IFogTTE0OC42MjUsMjcuOTM3NSBMMTUwLjM3NSwyNy45Mzc1IFExNTAuMzc1LDI3LjkzNzUgMTUwLjM3NSwyNS4xMjUgTDE0OC42MjUsMjUuMTI1IFExNDguNjI1LDI1LjEyNSAxNDguNjI1LDI3LjkzNzUgWiBNMTQ4LjYyNSwxOC43NSBRMTQ4LjYyNSwxOC43NSAxNDguNjI1LDIxLjU2MjUgTDE1MC4zNzUsMjEuNTYyNSBRMTUwLjM3NSwyMS41NjI1IDE1MC4zNzUsMTguNzUgTDE0OC42MjUsMTguNzUgWiBNMTQ0LjM3NSwxOS40Mzc1IEwxNDkuMzEyNSwxOS40Mzc1IEwxNDkuMzEyNSwxNy42ODc1IEwxNDQuMzc1LDE3LjY4NzUgTDE0NC4zNzUsMTkuNDM3NSBaICIgZmlsbD0iIzAwMDAwMCIvPjx0ZXh0IGZpbGw9IiMwMDAwMDAiIGZvbnQtZmFtaWx5PSJzYW5zLXNlcmlmIiBmb250LXNpemU9IjE0IiBsZW5ndGhBZGp1c3Q9InNwYWNpbmciIHRleHRMZW5ndGg9IjQyIiB4PSIxNjcuMjUiIHk9IjI4Ljc0MjIiPkxvYWRlcjwvdGV4dD48bGluZSBzdHlsZT0ic3Ryb2tlOiMxODE4MTg7c3Ryb2tlLXdpZHRoOjAuNTsiIHgxPSI4IiB4Mj0iMzM2IiB5MT0iMzkiIHkyPSIzOSIvPjxyZWN0IGZpbGw9Im5vbmUiIGhlaWdodD0iNiIgc3R5bGU9InN0cm9rZTojQzgyOTMwO3N0cm9rZS13aWR0aDoxLjA7IiB3aWR0aD0iNiIgeD0iMTUiIHk9IjQ4Ljk5MjIiLz48dGV4dCBmaWxsPSIjMDAwMDAwIiBmb250LWZhbWlseT0ic2Fucy1zZXJpZiIgZm9udC1zaXplPSIxNCIgbGVuZ3RoQWRqdXN0PSJzcGFjaW5nIiB0ZXh0TGVuZ3RoPSIxMzMiIHg9IjI3IiB5PSI1Ni4yMzQ0Ij50ZXh0dXJlUGF0aDogc3RyaW5nPC90ZXh0PjxsaW5lIHN0eWxlPSJzdHJva2U6IzE4MTgxODtzdHJva2Utd2lkdGg6MC41OyIgeDE9IjgiIHgyPSIzMzYiIHkxPSI2MS45ODQ0IiB5Mj0iNjEuOTg0NCIvPjxlbGxpcHNlIGN4PSIxOCIgY3k9Ijc0Ljk3NjYiIGZpbGw9IiM4NEJFODQiIHJ4PSIzIiByeT0iMyIgc3R5bGU9InN0cm9rZTojMDM4MDQ4O3N0cm9rZS13aWR0aDoxLjA7Ii8+PHRleHQgZmlsbD0iIzAwMDAwMCIgZm9udC1mYW1pbHk9InNhbnMtc2VyaWYiIGZvbnQtc2l6ZT0iMTQiIGxlbmd0aEFkanVzdD0ic3BhY2luZyIgdGV4dExlbmd0aD0iMzA0IiB4PSIyNyIgeT0iNzkuMjE4OCI+bG9hZEZpbGUoZmlsZTogRmlsZSwgbWFuYWdlcjogb2JqZWN0KTogdm9pZDwvdGV4dD48L2c+PCEtLWNsYXNzIEFkZE9iamVjdFRhc2stLT48ZyBpZD0iZWxlbV9BZGRPYmplY3RUYXNrIj48cmVjdCBjb2RlTGluZT0iNyIgZmlsbD0iI0YxRjFGMSIgaGVpZ2h0PSI2Mi45ODQ0IiBpZD0iQWRkT2JqZWN0VGFzayIgcng9IjIuNSIgcnk9IjIuNSIgc3R5bGU9InN0cm9rZTojMTgxODE4O3N0cm9rZS13aWR0aDowLjU7IiB3aWR0aD0iMjIyIiB4PSI2MSIgeT0iMTQ1Ii8+PGVsbGlwc2UgY3g9IjEyMi4yNSIgY3k9IjE2MSIgZmlsbD0iI0FERDFCMiIgcng9IjExIiByeT0iMTEiIHN0eWxlPSJzdHJva2U6IzE4MTgxODtzdHJva2Utd2lkdGg6MS4wOyIvPjxwYXRoIGQ9Ik0xMTkuODc1LDE2NS4yNSBMMTE5Ljg3NSwxNjcgTDEyNC44MTI1LDE2NyBMMTI0LjgxMjUsMTY1LjI1IEwxMTkuODc1LDE2NS4yNSBaIE0xMjAuNTYyNSwxNjUuOTM3NSBRMTIwLjU2MjUsMTY1LjkzNzUgMTIwLjU2MjUsMTU2Ljc1IEwxMTguODEyNSwxNTYuNzUgUTExOC44MTI1LDE1Ni43NSAxMTguODEyNSwxNjUuOTM3NSBMMTIwLjU2MjUsMTY1LjkzNzUgWiBNMTI0LjEyNSwxNjUuOTM3NSBMMTI1Ljg3NSwxNjUuOTM3NSBRMTI1Ljg3NSwxNjUuOTM3NSAxMjUuODc1LDE2My4xMjUgTDEyNC4xMjUsMTYzLjEyNSBRMTI0LjEyNSwxNjMuMTI1IDEyNC4xMjUsMTY1LjkzNzUgWiBNMTI0LjEyNSwxNTYuNzUgUTEyNC4xMjUsMTU2Ljc1IDEyNC4xMjUsMTU5LjU2MjUgTDEyNS44NzUsMTU5LjU2MjUgUTEyNS44NzUsMTU5LjU2MjUgMTI1Ljg3NSwxNTYuNzUgTDEyNC4xMjUsMTU2Ljc1IFogTTExOS44NzUsMTU3LjQzNzUgTDEyNC44MTI1LDE1Ny40Mzc1IEwxMjQuODEyNSwxNTUuNjg3NSBMMTE5Ljg3NSwxNTUuNjg3NSBMMTE5Ljg3NSwxNTcuNDM3NSBaICIgZmlsbD0iIzAwMDAwMCIvPjx0ZXh0IGZpbGw9IiMwMDAwMDAiIGZvbnQtZmFtaWx5PSJzYW5zLXNlcmlmIiBmb250LXNpemU9IjE0IiBsZW5ndGhBZGp1c3Q9InNwYWNpbmciIHRleHRMZW5ndGg9IjkxIiB4PSIxNDIuNzUiIHk9IjE2Ni43NDIyIj5BZGRPYmplY3RUYXNrPC90ZXh0PjxsaW5lIHN0eWxlPSJzdHJva2U6IzE4MTgxODtzdHJva2Utd2lkdGg6MC41OyIgeDE9IjYyIiB4Mj0iMjgyIiB5MT0iMTc3IiB5Mj0iMTc3Ii8+PHRleHQgZmlsbD0iIzAwMDAwMCIgZm9udC1mYW1pbHk9InNhbnMtc2VyaWYiIGZvbnQtc2l6ZT0iMTQiIGxlbmd0aEFkanVzdD0ic3BhY2luZyIgdGV4dExlbmd0aD0iMjEwIiB4PSI2NyIgeT0iMTk0LjIzNDQiPi8vIEFkZE9iamVjdFRhc2smIzMxODY3OyYjMzAzNDA7JiMyMzY0NjsmIzI0NjE1OyYjMjE2NDQ7JiMyNjA0MTsmIzI3ODYxOzwvdGV4dD48bGluZSBzdHlsZT0ic3Ryb2tlOiMxODE4MTg7c3Ryb2tlLXdpZHRoOjAuNTsiIHgxPSI2MiIgeDI9IjI4MiIgeTE9IjE5OS45ODQ0IiB5Mj0iMTk5Ljk4NDQiLz48L2c+PCEtLWxpbmsgTG9hZGVyIHRvIEFkZE9iamVjdFRhc2stLT48ZyBpZD0ibGlua19Mb2FkZXJfQWRkT2JqZWN0VGFzayI+PHBhdGggY29kZUxpbmU9IjExIiBkPSJNMTcyLDg1LjIxIEMxNzIsMTAyLjUgMTcyLDEyMi44MyAxNzIsMTM5LjgyICIgZmlsbD0ibm9uZSIgaWQ9IkxvYWRlci10by1BZGRPYmplY3RUYXNrIiBzdHlsZT0ic3Ryb2tlOiMxODE4MTg7c3Ryb2tlLXdpZHRoOjEuMDsiLz48cG9seWdvbiBmaWxsPSIjMTgxODE4IiBwb2ludHM9IjE3MiwxNDQuOTcsMTc2LDEzNS45NywxNzIsMTM5Ljk3LDE2OCwxMzUuOTcsMTcyLDE0NC45NyIgc3R5bGU9InN0cm9rZTojMTgxODE4O3N0cm9rZS13aWR0aDoxLjA7Ii8+PHRleHQgZmlsbD0iIzAwMDAwMCIgZm9udC1mYW1pbHk9InNhbnMtc2VyaWYiIGZvbnQtc2l6ZT0iMTMiIGxlbmd0aEFkanVzdD0ic3BhY2luZyIgdGV4dExlbmd0aD0iNyIgeD0iMTY0LjQyMDMiIHk9IjEwNS4xNDgxIj4xPC90ZXh0Pjx0ZXh0IGZpbGw9IiMwMDAwMDAiIGZvbnQtZmFtaWx5PSJzYW5zLXNlcmlmIiBmb250LXNpemU9IjEzIiBsZW5ndGhBZGp1c3Q9InNwYWNpbmciIHRleHRMZW5ndGg9IjciIHg9IjE2NC4xOTA2IiB5PSIxMzUuNTcyMSI+MTwvdGV4dD48L2c+PCEtLVNSQz1bSXl2OUIydk15Q2JGSjRhaktnWmNLYjNHTElYOWhJV2ZCS2VESTJwOWk1OGVCWWRBcDRsZDBhZmVBLUcwTFJiYnZnSGdmMDQ5QW1LR0txU1hEcDRsQ0pzcm80ZVhGb2FoRFJiNHFxZ1hCM3lwWFFrTVlvaVBSQkhaSWVlX00yT2FpSldSUjhFLUZnaFd5dXN4ZHl6Z1VSZm50aEU2dkt5ZHpKb1JqbEZQdmdhVzB3MmtLWjlLS2ozTGpHRkpBMWUxXS0tPjwvZz48L3N2Zz4=;" vertex="1" parent="1">
            <mxGeometry x="700" y="10" width="344" height="214" as="geometry" />
          </mxCell>
        </UserObject>
        <UserObject label="" plantUmlData="{&#xa;  &quot;data&quot;: &quot;@startuml\n\nclass History {\n  - editor: object\n  - undos: array\n  - redos: array\n  - lastTaskTime: number\n  - idCounter: number\n  - historyDisabled: boolean\n  - config: object\n\n  + constructor(editor: object)\n  + execute(task: object, optionalName: string): void\n  + undo(): object\n  + redo(): object\n  + toJSON(): object\n  + fromJSON(json: object): void\n  + clear(): void\n  + goToState(id: number): void\n  + enableSerialization(id: number): void\n}\n\nclass Tasks {\n  // Tasks类的属性和方法\n}\n\nHistory \&quot;1\&quot; --&gt; \&quot;*\&quot; Tasks\n\n@enduml&quot;,&#xa;  &quot;format&quot;: &quot;svg&quot;&#xa;}" id="PgmvUCnNzQ-OiwYf912T-5">
          <mxCell style="shape=image;noLabel=1;verticalAlign=top;aspect=fixed;imageAspect=0;image=data:image/svg+xml,PD94bWwgdmVyc2lvbj0iMS4wIiBlbmNvZGluZz0idXMtYXNjaWkiIHN0YW5kYWxvbmU9Im5vIj8+PHN2ZyB4bWxucz0iaHR0cDovL3d3dy53My5vcmcvMjAwMC9zdmciIHhtbG5zOnhsaW5rPSJodHRwOi8vd3d3LnczLm9yZy8xOTk5L3hsaW5rIiBjb250ZW50U3R5bGVUeXBlPSJ0ZXh0L2NzcyIgaGVpZ2h0PSI0MjRweCIgcHJlc2VydmVBc3BlY3RSYXRpbz0ibm9uZSIgc3R5bGU9IndpZHRoOjM4NnB4O2hlaWdodDo0MjRweDtiYWNrZ3JvdW5kOiNGRkZGRkY7IiB2ZXJzaW9uPSIxLjEiIHZpZXdCb3g9IjAgMCAzODYgNDI0IiB3aWR0aD0iMzg2cHgiIHpvb21BbmRQYW49Im1hZ25pZnkiPjxkZWZzLz48Zz48IS0tY2xhc3MgSGlzdG9yeS0tPjxnIGlkPSJlbGVtX0hpc3RvcnkiPjxyZWN0IGNvZGVMaW5lPSIxIiBmaWxsPSIjRjFGMUYxIiBoZWlnaHQ9IjI4Ny43NSIgaWQ9Ikhpc3RvcnkiIHJ4PSIyLjUiIHJ5PSIyLjUiIHN0eWxlPSJzdHJva2U6IzE4MTgxODtzdHJva2Utd2lkdGg6MC41OyIgd2lkdGg9IjM3MiIgeD0iNyIgeT0iNyIvPjxlbGxpcHNlIGN4PSIxNjQuMjUiIGN5PSIyMyIgZmlsbD0iI0FERDFCMiIgcng9IjExIiByeT0iMTEiIHN0eWxlPSJzdHJva2U6IzE4MTgxODtzdHJva2Utd2lkdGg6MS4wOyIvPjxwYXRoIGQ9Ik0xNjEuODc1LDI3LjI1IEwxNjEuODc1LDI5IEwxNjYuODEyNSwyOSBMMTY2LjgxMjUsMjcuMjUgTDE2MS44NzUsMjcuMjUgWiBNMTYyLjU2MjUsMjcuOTM3NSBRMTYyLjU2MjUsMjcuOTM3NSAxNjIuNTYyNSwxOC43NSBMMTYwLjgxMjUsMTguNzUgUTE2MC44MTI1LDE4Ljc1IDE2MC44MTI1LDI3LjkzNzUgTDE2Mi41NjI1LDI3LjkzNzUgWiBNMTY2LjEyNSwyNy45Mzc1IEwxNjcuODc1LDI3LjkzNzUgUTE2Ny44NzUsMjcuOTM3NSAxNjcuODc1LDI1LjEyNSBMMTY2LjEyNSwyNS4xMjUgUTE2Ni4xMjUsMjUuMTI1IDE2Ni4xMjUsMjcuOTM3NSBaIE0xNjYuMTI1LDE4Ljc1IFExNjYuMTI1LDE4Ljc1IDE2Ni4xMjUsMjEuNTYyNSBMMTY3Ljg3NSwyMS41NjI1IFExNjcuODc1LDIxLjU2MjUgMTY3Ljg3NSwxOC43NSBMMTY2LjEyNSwxOC43NSBaIE0xNjEuODc1LDE5LjQzNzUgTDE2Ni44MTI1LDE5LjQzNzUgTDE2Ni44MTI1LDE3LjY4NzUgTDE2MS44NzUsMTcuNjg3NSBMMTYxLjg3NSwxOS40Mzc1IFogIiBmaWxsPSIjMDAwMDAwIi8+PHRleHQgZmlsbD0iIzAwMDAwMCIgZm9udC1mYW1pbHk9InNhbnMtc2VyaWYiIGZvbnQtc2l6ZT0iMTQiIGxlbmd0aEFkanVzdD0ic3BhY2luZyIgdGV4dExlbmd0aD0iNDkiIHg9IjE4NC43NSIgeT0iMjguNzQyMiI+SGlzdG9yeTwvdGV4dD48bGluZSBzdHlsZT0ic3Ryb2tlOiMxODE4MTg7c3Ryb2tlLXdpZHRoOjAuNTsiIHgxPSI4IiB4Mj0iMzc4IiB5MT0iMzkiIHkyPSIzOSIvPjxyZWN0IGZpbGw9Im5vbmUiIGhlaWdodD0iNiIgc3R5bGU9InN0cm9rZTojQzgyOTMwO3N0cm9rZS13aWR0aDoxLjA7IiB3aWR0aD0iNiIgeD0iMTUiIHk9IjQ4Ljk5MjIiLz48dGV4dCBmaWxsPSIjMDAwMDAwIiBmb250LWZhbWlseT0ic2Fucy1zZXJpZiIgZm9udC1zaXplPSIxNCIgbGVuZ3RoQWRqdXN0PSJzcGFjaW5nIiB0ZXh0TGVuZ3RoPSI5OCIgeD0iMjciIHk9IjU2LjIzNDQiPmVkaXRvcjogb2JqZWN0PC90ZXh0PjxyZWN0IGZpbGw9Im5vbmUiIGhlaWdodD0iNiIgc3R5bGU9InN0cm9rZTojQzgyOTMwO3N0cm9rZS13aWR0aDoxLjA7IiB3aWR0aD0iNiIgeD0iMTUiIHk9IjYzLjk3NjYiLz48dGV4dCBmaWxsPSIjMDAwMDAwIiBmb250LWZhbWlseT0ic2Fucy1zZXJpZiIgZm9udC1zaXplPSIxNCIgbGVuZ3RoQWRqdXN0PSJzcGFjaW5nIiB0ZXh0TGVuZ3RoPSI4NCIgeD0iMjciIHk9IjcxLjIxODgiPnVuZG9zOiBhcnJheTwvdGV4dD48cmVjdCBmaWxsPSJub25lIiBoZWlnaHQ9IjYiIHN0eWxlPSJzdHJva2U6I0M4MjkzMDtzdHJva2Utd2lkdGg6MS4wOyIgd2lkdGg9IjYiIHg9IjE1IiB5PSI3OC45NjA5Ii8+PHRleHQgZmlsbD0iIzAwMDAwMCIgZm9udC1mYW1pbHk9InNhbnMtc2VyaWYiIGZvbnQtc2l6ZT0iMTQiIGxlbmd0aEFkanVzdD0ic3BhY2luZyIgdGV4dExlbmd0aD0iODQiIHg9IjI3IiB5PSI4Ni4yMDMxIj5yZWRvczogYXJyYXk8L3RleHQ+PHJlY3QgZmlsbD0ibm9uZSIgaGVpZ2h0PSI2IiBzdHlsZT0ic3Ryb2tlOiNDODI5MzA7c3Ryb2tlLXdpZHRoOjEuMDsiIHdpZHRoPSI2IiB4PSIxNSIgeT0iOTMuOTQ1MyIvPjx0ZXh0IGZpbGw9IiMwMDAwMDAiIGZvbnQtZmFtaWx5PSJzYW5zLXNlcmlmIiBmb250LXNpemU9IjE0IiBsZW5ndGhBZGp1c3Q9InNwYWNpbmciIHRleHRMZW5ndGg9IjE0MiIgeD0iMjciIHk9IjEwMS4xODc1Ij5sYXN0VGFza1RpbWU6IG51bWJlcjwvdGV4dD48cmVjdCBmaWxsPSJub25lIiBoZWlnaHQ9IjYiIHN0eWxlPSJzdHJva2U6I0M4MjkzMDtzdHJva2Utd2lkdGg6MS4wOyIgd2lkdGg9IjYiIHg9IjE1IiB5PSIxMDguOTI5NyIvPjx0ZXh0IGZpbGw9IiMwMDAwMDAiIGZvbnQtZmFtaWx5PSJzYW5zLXNlcmlmIiBmb250LXNpemU9IjE0IiBsZW5ndGhBZGp1c3Q9InNwYWNpbmciIHRleHRMZW5ndGg9IjEyMCIgeD0iMjciIHk9IjExNi4xNzE5Ij5pZENvdW50ZXI6IG51bWJlcjwvdGV4dD48cmVjdCBmaWxsPSJub25lIiBoZWlnaHQ9IjYiIHN0eWxlPSJzdHJva2U6I0M4MjkzMDtzdHJva2Utd2lkdGg6MS4wOyIgd2lkdGg9IjYiIHg9IjE1IiB5PSIxMjMuOTE0MSIvPjx0ZXh0IGZpbGw9IiMwMDAwMDAiIGZvbnQtZmFtaWx5PSJzYW5zLXNlcmlmIiBmb250LXNpemU9IjE0IiBsZW5ndGhBZGp1c3Q9InNwYWNpbmciIHRleHRMZW5ndGg9IjE2OCIgeD0iMjciIHk9IjEzMS4xNTYzIj5oaXN0b3J5RGlzYWJsZWQ6IGJvb2xlYW48L3RleHQ+PHJlY3QgZmlsbD0ibm9uZSIgaGVpZ2h0PSI2IiBzdHlsZT0ic3Ryb2tlOiNDODI5MzA7c3Ryb2tlLXdpZHRoOjEuMDsiIHdpZHRoPSI2IiB4PSIxNSIgeT0iMTM4Ljg5ODQiLz48dGV4dCBmaWxsPSIjMDAwMDAwIiBmb250LWZhbWlseT0ic2Fucy1zZXJpZiIgZm9udC1zaXplPSIxNCIgbGVuZ3RoQWRqdXN0PSJzcGFjaW5nIiB0ZXh0TGVuZ3RoPSI5OCIgeD0iMjciIHk9IjE0Ni4xNDA2Ij5jb25maWc6IG9iamVjdDwvdGV4dD48bGluZSBzdHlsZT0ic3Ryb2tlOiMxODE4MTg7c3Ryb2tlLXdpZHRoOjAuNTsiIHgxPSI4IiB4Mj0iMzc4IiB5MT0iMTUxLjg5MDYiIHkyPSIxNTEuODkwNiIvPjxlbGxpcHNlIGN4PSIxOCIgY3k9IjE2NC44ODI4IiBmaWxsPSIjODRCRTg0IiByeD0iMyIgcnk9IjMiIHN0eWxlPSJzdHJva2U6IzAzODA0ODtzdHJva2Utd2lkdGg6MS4wOyIvPjx0ZXh0IGZpbGw9IiMwMDAwMDAiIGZvbnQtZmFtaWx5PSJzYW5zLXNlcmlmIiBmb250LXNpemU9IjE0IiBsZW5ndGhBZGp1c3Q9InNwYWNpbmciIHRleHRMZW5ndGg9IjE5MSIgeD0iMjciIHk9IjE2OS4xMjUiPmNvbnN0cnVjdG9yKGVkaXRvcjogb2JqZWN0KTwvdGV4dD48ZWxsaXBzZSBjeD0iMTgiIGN5PSIxNzkuODY3MiIgZmlsbD0iIzg0QkU4NCIgcng9IjMiIHJ5PSIzIiBzdHlsZT0ic3Ryb2tlOiMwMzgwNDg7c3Ryb2tlLXdpZHRoOjEuMDsiLz48dGV4dCBmaWxsPSIjMDAwMDAwIiBmb250LWZhbWlseT0ic2Fucy1zZXJpZiIgZm9udC1zaXplPSIxNCIgbGVuZ3RoQWRqdXN0PSJzcGFjaW5nIiB0ZXh0TGVuZ3RoPSIzNDYiIHg9IjI3IiB5PSIxODQuMTA5NCI+ZXhlY3V0ZSh0YXNrOiBvYmplY3QsIG9wdGlvbmFsTmFtZTogc3RyaW5nKTogdm9pZDwvdGV4dD48ZWxsaXBzZSBjeD0iMTgiIGN5PSIxOTQuODUxNiIgZmlsbD0iIzg0QkU4NCIgcng9IjMiIHJ5PSIzIiBzdHlsZT0ic3Ryb2tlOiMwMzgwNDg7c3Ryb2tlLXdpZHRoOjEuMDsiLz48dGV4dCBmaWxsPSIjMDAwMDAwIiBmb250LWZhbWlseT0ic2Fucy1zZXJpZiIgZm9udC1zaXplPSIxNCIgbGVuZ3RoQWRqdXN0PSJzcGFjaW5nIiB0ZXh0TGVuZ3RoPSIxMDAiIHg9IjI3IiB5PSIxOTkuMDkzOCI+dW5kbygpOiBvYmplY3Q8L3RleHQ+PGVsbGlwc2UgY3g9IjE4IiBjeT0iMjA5LjgzNTkiIGZpbGw9IiM4NEJFODQiIHJ4PSIzIiByeT0iMyIgc3R5bGU9InN0cm9rZTojMDM4MDQ4O3N0cm9rZS13aWR0aDoxLjA7Ii8+PHRleHQgZmlsbD0iIzAwMDAwMCIgZm9udC1mYW1pbHk9InNhbnMtc2VyaWYiIGZvbnQtc2l6ZT0iMTQiIGxlbmd0aEFkanVzdD0ic3BhY2luZyIgdGV4dExlbmd0aD0iMTAwIiB4PSIyNyIgeT0iMjE0LjA3ODEiPnJlZG8oKTogb2JqZWN0PC90ZXh0PjxlbGxpcHNlIGN4PSIxOCIgY3k9IjIyNC44MjAzIiBmaWxsPSIjODRCRTg0IiByeD0iMyIgcnk9IjMiIHN0eWxlPSJzdHJva2U6IzAzODA0ODtzdHJva2Utd2lkdGg6MS4wOyIvPjx0ZXh0IGZpbGw9IiMwMDAwMDAiIGZvbnQtZmFtaWx5PSJzYW5zLXNlcmlmIiBmb250LXNpemU9IjE0IiBsZW5ndGhBZGp1c3Q9InNwYWNpbmciIHRleHRMZW5ndGg9IjExNSIgeD0iMjciIHk9IjIyOS4wNjI1Ij50b0pTT04oKTogb2JqZWN0PC90ZXh0PjxlbGxpcHNlIGN4PSIxOCIgY3k9IjIzOS44MDQ3IiBmaWxsPSIjODRCRTg0IiByeD0iMyIgcnk9IjMiIHN0eWxlPSJzdHJva2U6IzAzODA0ODtzdHJva2Utd2lkdGg6MS4wOyIvPjx0ZXh0IGZpbGw9IiMwMDAwMDAiIGZvbnQtZmFtaWx5PSJzYW5zLXNlcmlmIiBmb250LXNpemU9IjE0IiBsZW5ndGhBZGp1c3Q9InNwYWNpbmciIHRleHRMZW5ndGg9IjIwMCIgeD0iMjciIHk9IjI0NC4wNDY5Ij5mcm9tSlNPTihqc29uOiBvYmplY3QpOiB2b2lkPC90ZXh0PjxlbGxpcHNlIGN4PSIxOCIgY3k9IjI1NC43ODkxIiBmaWxsPSIjODRCRTg0IiByeD0iMyIgcnk9IjMiIHN0eWxlPSJzdHJva2U6IzAzODA0ODtzdHJva2Utd2lkdGg6MS4wOyIvPjx0ZXh0IGZpbGw9IiMwMDAwMDAiIGZvbnQtZmFtaWx5PSJzYW5zLXNlcmlmIiBmb250LXNpemU9IjE0IiBsZW5ndGhBZGp1c3Q9InNwYWNpbmciIHRleHRMZW5ndGg9IjkzIiB4PSIyNyIgeT0iMjU5LjAzMTMiPmNsZWFyKCk6IHZvaWQ8L3RleHQ+PGVsbGlwc2UgY3g9IjE4IiBjeT0iMjY5Ljc3MzQiIGZpbGw9IiM4NEJFODQiIHJ4PSIzIiByeT0iMyIgc3R5bGU9InN0cm9rZTojMDM4MDQ4O3N0cm9rZS13aWR0aDoxLjA7Ii8+PHRleHQgZmlsbD0iIzAwMDAwMCIgZm9udC1mYW1pbHk9InNhbnMtc2VyaWYiIGZvbnQtc2l6ZT0iMTQiIGxlbmd0aEFkanVzdD0ic3BhY2luZyIgdGV4dExlbmd0aD0iMTkyIiB4PSIyNyIgeT0iMjc0LjAxNTYiPmdvVG9TdGF0ZShpZDogbnVtYmVyKTogdm9pZDwvdGV4dD48ZWxsaXBzZSBjeD0iMTgiIGN5PSIyODQuNzU3OCIgZmlsbD0iIzg0QkU4NCIgcng9IjMiIHJ5PSIzIiBzdHlsZT0ic3Ryb2tlOiMwMzgwNDg7c3Ryb2tlLXdpZHRoOjEuMDsiLz48dGV4dCBmaWxsPSIjMDAwMDAwIiBmb250LWZhbWlseT0ic2Fucy1zZXJpZiIgZm9udC1zaXplPSIxNCIgbGVuZ3RoQWRqdXN0PSJzcGFjaW5nIiB0ZXh0TGVuZ3RoPSIyNjIiIHg9IjI3IiB5PSIyODkiPmVuYWJsZVNlcmlhbGl6YXRpb24oaWQ6IG51bWJlcik6IHZvaWQ8L3RleHQ+PC9nPjwhLS1jbGFzcyBUYXNrcy0tPjxnIGlkPSJlbGVtX1Rhc2tzIj48cmVjdCBjb2RlTGluZT0iMjEiIGZpbGw9IiNGMUYxRjEiIGhlaWdodD0iNjIuOTg0NCIgaWQ9IlRhc2tzIiByeD0iMi41IiByeT0iMi41IiBzdHlsZT0ic3Ryb2tlOiMxODE4MTg7c3Ryb2tlLXdpZHRoOjAuNTsiIHdpZHRoPSIxNjYiIHg9IjExMCIgeT0iMzU1Ii8+PGVsbGlwc2UgY3g9IjE3MS4yNSIgY3k9IjM3MSIgZmlsbD0iI0FERDFCMiIgcng9IjExIiByeT0iMTEiIHN0eWxlPSJzdHJva2U6IzE4MTgxODtzdHJva2Utd2lkdGg6MS4wOyIvPjxwYXRoIGQ9Ik0xNjguODc1LDM3NS4yNSBMMTY4Ljg3NSwzNzcgTDE3My44MTI1LDM3NyBMMTczLjgxMjUsMzc1LjI1IEwxNjguODc1LDM3NS4yNSBaIE0xNjkuNTYyNSwzNzUuOTM3NSBRMTY5LjU2MjUsMzc1LjkzNzUgMTY5LjU2MjUsMzY2Ljc1IEwxNjcuODEyNSwzNjYuNzUgUTE2Ny44MTI1LDM2Ni43NSAxNjcuODEyNSwzNzUuOTM3NSBMMTY5LjU2MjUsMzc1LjkzNzUgWiBNMTczLjEyNSwzNzUuOTM3NSBMMTc0Ljg3NSwzNzUuOTM3NSBRMTc0Ljg3NSwzNzUuOTM3NSAxNzQuODc1LDM3My4xMjUgTDE3My4xMjUsMzczLjEyNSBRMTczLjEyNSwzNzMuMTI1IDE3My4xMjUsMzc1LjkzNzUgWiBNMTczLjEyNSwzNjYuNzUgUTE3My4xMjUsMzY2Ljc1IDE3My4xMjUsMzY5LjU2MjUgTDE3NC44NzUsMzY5LjU2MjUgUTE3NC44NzUsMzY5LjU2MjUgMTc0Ljg3NSwzNjYuNzUgTDE3My4xMjUsMzY2Ljc1IFogTTE2OC44NzUsMzY3LjQzNzUgTDE3My44MTI1LDM2Ny40Mzc1IEwxNzMuODEyNSwzNjUuNjg3NSBMMTY4Ljg3NSwzNjUuNjg3NSBMMTY4Ljg3NSwzNjcuNDM3NSBaICIgZmlsbD0iIzAwMDAwMCIvPjx0ZXh0IGZpbGw9IiMwMDAwMDAiIGZvbnQtZmFtaWx5PSJzYW5zLXNlcmlmIiBmb250LXNpemU9IjE0IiBsZW5ndGhBZGp1c3Q9InNwYWNpbmciIHRleHRMZW5ndGg9IjM1IiB4PSIxOTEuNzUiIHk9IjM3Ni43NDIyIj5UYXNrczwvdGV4dD48bGluZSBzdHlsZT0ic3Ryb2tlOiMxODE4MTg7c3Ryb2tlLXdpZHRoOjAuNTsiIHgxPSIxMTEiIHgyPSIyNzUiIHkxPSIzODciIHkyPSIzODciLz48dGV4dCBmaWxsPSIjMDAwMDAwIiBmb250LWZhbWlseT0ic2Fucy1zZXJpZiIgZm9udC1zaXplPSIxNCIgbGVuZ3RoQWRqdXN0PSJzcGFjaW5nIiB0ZXh0TGVuZ3RoPSIxNTQiIHg9IjExNiIgeT0iNDA0LjIzNDQiPi8vIFRhc2tzJiMzMTg2NzsmIzMwMzQwOyYjMjM2NDY7JiMyNDYxNTsmIzIxNjQ0OyYjMjYwNDE7JiMyNzg2MTs8L3RleHQ+PGxpbmUgc3R5bGU9InN0cm9rZTojMTgxODE4O3N0cm9rZS13aWR0aDowLjU7IiB4MT0iMTExIiB4Mj0iMjc1IiB5MT0iNDA5Ljk4NDQiIHkyPSI0MDkuOTg0NCIvPjwvZz48IS0tbGluayBIaXN0b3J5IHRvIFRhc2tzLS0+PGcgaWQ9ImxpbmtfSGlzdG9yeV9UYXNrcyI+PHBhdGggY29kZUxpbmU9IjI1IiBkPSJNMTkzLDI5NS4yMiBDMTkzLDMxNS40MSAxOTMsMzM0LjQ4IDE5MywzNDkuODUgIiBmaWxsPSJub25lIiBpZD0iSGlzdG9yeS10by1UYXNrcyIgc3R5bGU9InN0cm9rZTojMTgxODE4O3N0cm9rZS13aWR0aDoxLjA7Ii8+PHBvbHlnb24gZmlsbD0iIzE4MTgxOCIgcG9pbnRzPSIxOTMsMzU0LjkxLDE5NywzNDUuOTEsMTkzLDM0OS45MSwxODksMzQ1LjkxLDE5MywzNTQuOTEiIHN0eWxlPSJzdHJva2U6IzE4MTgxODtzdHJva2Utd2lkdGg6MS4wOyIvPjx0ZXh0IGZpbGw9IiMwMDAwMDAiIGZvbnQtZmFtaWx5PSJzYW5zLXNlcmlmIiBmb250LXNpemU9IjEzIiBsZW5ndGhBZGp1c3Q9InNwYWNpbmciIHRleHRMZW5ndGg9IjciIHg9IjE4NS44MzA1IiB5PSIzMTQuODM3OCI+MTwvdGV4dD48dGV4dCBmaWxsPSIjMDAwMDAwIiBmb250LWZhbWlseT0ic2Fucy1zZXJpZiIgZm9udC1zaXplPSIxMyIgbGVuZ3RoQWRqdXN0PSJzcGFjaW5nIiB0ZXh0TGVuZ3RoPSI2IiB4PSIxODYuMzA2MyIgeT0iMzQ1LjQ5ODIiPio8L3RleHQ+PC9nPjwhLS1TUkM9W1JQNm5KaUNtNDhSdEZDS2ZLcUE5QWpPQ0IzMFdYWjhhQi0wdXItMHN5STdSR0hJNG5DMzhYMEczMG9qcG5PSHVkaFFsV1VxZUxIZW50bFZ4cGx6X25za2NETG04UktZanUyNDBJMDFCT1FpS2c1V1dEbndyaVlJVDBiRUFoSm5HRTA5c1ppY1BOa1FZbUhIYXNuSWVsMjNBQ3NnYkdOTDBoeGlWcHVMY0hPcmIyV0xIWktud2FQRVNZc2ZsbUJBOU96Z2Viamtrd0QxV3g3TXlHenVRWjhwcnEybDdHM1Q2YTZKclozYk5UZTJHTFBwMkJPZElUeGJTS0pvOEVsNzlIaVpHUE5PcjZ5NnZlaVJaWElRdnpwQU9wTXFVNUdyOUhKYmJYYmNOZWtvdENUSEhrY0xhZzBJaG5KcnBybHp2LUhXNHQ1X0RoTGx4Y3FzZE5SNVJfLXUtZFpWaHAtdEpyLVJyUFZsLWlfci1TbXR6V1NFSjQ5QmE1Q0FaaUVsdTBtMDBdLS0+PC9nPjwvc3ZnPg==;" vertex="1" parent="1">
            <mxGeometry x="450" y="300.45" width="386" height="424" as="geometry" />
          </mxCell>
        </UserObject>
        <UserObject label="" plantUmlData="{&#xa;  &quot;data&quot;: &quot;@startuml\n\nclass EditorControls {\n  - enabled: boolean\n  - center: THREE.Vector3\n  - panSpeed: number\n  - zoomSpeed: number\n  - rotationSpeed: number\n  - scope: EditorControls\n  - vector: THREE.Vector3\n  - delta: THREE.Vector3\n  - box: THREE.Box3\n  - STATE: { NONE: -1, ROTATE: 0, ZOOM: 1, PAN: 2 }\n  - state: number\n  - center: THREE.Vector3\n  - normalMatrix: THREE.Matrix3\n  - pointer: THREE.Vector2\n  - pointerOld: THREE.Vector2\n  - spherical: THREE.Spherical\n  - sphere: THREE.Sphere\n  - changeEvent: { type: &#39;change&#39; }\n\n  + constructor(object: object, domElement: HTMLElement)\n  + focus(target: object): void\n  + pan(delta: THREE.Vector3): void\n  + zoom(delta: THREE.Vector3): void\n  + rotate(delta: THREE.Vector3): void\n  + dispose(): void\n}\n\nEditorControls --|&gt; THREE.EventDispatcher\n\n@enduml&quot;,&#xa;  &quot;format&quot;: &quot;svg&quot;&#xa;}" id="PgmvUCnNzQ-OiwYf912T-6">
          <mxCell style="shape=image;noLabel=1;verticalAlign=top;aspect=fixed;imageAspect=0;image=data:image/svg+xml,PD94bWwgdmVyc2lvbj0iMS4wIiBlbmNvZGluZz0idXMtYXNjaWkiIHN0YW5kYWxvbmU9Im5vIj8+PHN2ZyB4bWxucz0iaHR0cDovL3d3dy53My5vcmcvMjAwMC9zdmciIHhtbG5zOnhsaW5rPSJodHRwOi8vd3d3LnczLm9yZy8xOTk5L3hsaW5rIiBjb250ZW50U3R5bGVUeXBlPSJ0ZXh0L2NzcyIgaGVpZ2h0PSI1NDZweCIgcHJlc2VydmVBc3BlY3RSYXRpbz0ibm9uZSIgc3R5bGU9IndpZHRoOjQwOXB4O2hlaWdodDo1NDZweDtiYWNrZ3JvdW5kOiNGRkZGRkY7IiB2ZXJzaW9uPSIxLjEiIHZpZXdCb3g9IjAgMCA0MDkgNTQ2IiB3aWR0aD0iNDA5cHgiIHpvb21BbmRQYW49Im1hZ25pZnkiPjxkZWZzLz48Zz48IS0tY2x1c3RlciBUSFJFRS0tPjxnIGlkPSJjbHVzdGVyX1RIUkVFIj48cGF0aCBkPSJNMTIyLDQ0MiBMMTU4LDQ0MiBBMy43NSwzLjc1IDAgMCAxIDE2MC41LDQ0NC41IEwxNjcuNSw0NjIuOTg0NCBMMjg3LDQ2Mi45ODQ0IEEyLjUsMi41IDAgMCAxIDI4OS41LDQ2NS40ODQ0IEwyODkuNSw1MzYuNSBBMi41LDIuNSAwIDAgMSAyODcsNTM5IEwxMjIsNTM5IEEyLjUsMi41IDAgMCAxIDExOS41LDUzNi41IEwxMTkuNSw0NDQuNSBBMi41LDIuNSAwIDAgMSAxMjIsNDQyICIgZmlsbD0ibm9uZSIgc3R5bGU9InN0cm9rZTojMDAwMDAwO3N0cm9rZS13aWR0aDoxLjU7Ii8+PGxpbmUgc3R5bGU9InN0cm9rZTojMDAwMDAwO3N0cm9rZS13aWR0aDoxLjU7IiB4MT0iMTE5LjUiIHgyPSIxNjcuNSIgeTE9IjQ2Mi45ODQ0IiB5Mj0iNDYyLjk4NDQiLz48dGV4dCBmaWxsPSIjMDAwMDAwIiBmb250LWZhbWlseT0ic2Fucy1zZXJpZiIgZm9udC1zaXplPSIxNCIgZm9udC13ZWlnaHQ9ImJvbGQiIGxlbmd0aEFkanVzdD0ic3BhY2luZyIgdGV4dExlbmd0aD0iMzUiIHg9IjEyMy41IiB5PSI0NTcuMjM0NCI+VEhSRUU8L3RleHQ+PC9nPjwhLS1jbGFzcyBFdmVudERpc3BhdGNoZXItLT48ZyBpZD0iZWxlbV9FdmVudERpc3BhdGNoZXIiPjxyZWN0IGZpbGw9IiNGMUYxRjEiIGhlaWdodD0iNDgiIGlkPSJFdmVudERpc3BhdGNoZXIiIHJ4PSIyLjUiIHJ5PSIyLjUiIHN0eWxlPSJzdHJva2U6IzE4MTgxODtzdHJva2Utd2lkdGg6MC41OyIgd2lkdGg9IjEzNyIgeD0iMTM2IiB5PSI0NzUiLz48ZWxsaXBzZSBjeD0iMTUxIiBjeT0iNDkxIiBmaWxsPSIjQUREMUIyIiByeD0iMTEiIHJ5PSIxMSIgc3R5bGU9InN0cm9rZTojMTgxODE4O3N0cm9rZS13aWR0aDoxLjA7Ii8+PHBhdGggZD0iTTE0OC42MjUsNDk1LjI1IEwxNDguNjI1LDQ5NyBMMTUzLjU2MjUsNDk3IEwxNTMuNTYyNSw0OTUuMjUgTDE0OC42MjUsNDk1LjI1IFogTTE0OS4zMTI1LDQ5NS45Mzc1IFExNDkuMzEyNSw0OTUuOTM3NSAxNDkuMzEyNSw0ODYuNzUgTDE0Ny41NjI1LDQ4Ni43NSBRMTQ3LjU2MjUsNDg2Ljc1IDE0Ny41NjI1LDQ5NS45Mzc1IEwxNDkuMzEyNSw0OTUuOTM3NSBaIE0xNTIuODc1LDQ5NS45Mzc1IEwxNTQuNjI1LDQ5NS45Mzc1IFExNTQuNjI1LDQ5NS45Mzc1IDE1NC42MjUsNDkzLjEyNSBMMTUyLjg3NSw0OTMuMTI1IFExNTIuODc1LDQ5My4xMjUgMTUyLjg3NSw0OTUuOTM3NSBaIE0xNTIuODc1LDQ4Ni43NSBRMTUyLjg3NSw0ODYuNzUgMTUyLjg3NSw0ODkuNTYyNSBMMTU0LjYyNSw0ODkuNTYyNSBRMTU0LjYyNSw0ODkuNTYyNSAxNTQuNjI1LDQ4Ni43NSBMMTUyLjg3NSw0ODYuNzUgWiBNMTQ4LjYyNSw0ODcuNDM3NSBMMTUzLjU2MjUsNDg3LjQzNzUgTDE1My41NjI1LDQ4NS42ODc1IEwxNDguNjI1LDQ4NS42ODc1IEwxNDguNjI1LDQ4Ny40Mzc1IFogIiBmaWxsPSIjMDAwMDAwIi8+PHRleHQgZmlsbD0iIzAwMDAwMCIgZm9udC1mYW1pbHk9InNhbnMtc2VyaWYiIGZvbnQtc2l6ZT0iMTQiIGxlbmd0aEFkanVzdD0ic3BhY2luZyIgdGV4dExlbmd0aD0iMTA1IiB4PSIxNjUiIHk9IjQ5Ni43NDIyIj5FdmVudERpc3BhdGNoZXI8L3RleHQ+PGxpbmUgc3R5bGU9InN0cm9rZTojMTgxODE4O3N0cm9rZS13aWR0aDowLjU7IiB4MT0iMTM3IiB4Mj0iMjcyIiB5MT0iNTA3IiB5Mj0iNTA3Ii8+PGxpbmUgc3R5bGU9InN0cm9rZTojMTgxODE4O3N0cm9rZS13aWR0aDowLjU7IiB4MT0iMTM3IiB4Mj0iMjcyIiB5MT0iNTE1IiB5Mj0iNTE1Ii8+PC9nPjwhLS1jbGFzcyBFZGl0b3JDb250cm9scy0tPjxnIGlkPSJlbGVtX0VkaXRvckNvbnRyb2xzIj48cmVjdCBjb2RlTGluZT0iMSIgZmlsbD0iI0YxRjFGMSIgaGVpZ2h0PSI0MDcuNjI1IiBpZD0iRWRpdG9yQ29udHJvbHMiIHJ4PSIyLjUiIHJ5PSIyLjUiIHN0eWxlPSJzdHJva2U6IzE4MTgxODtzdHJva2Utd2lkdGg6MC41OyIgd2lkdGg9IjM5NSIgeD0iNyIgeT0iNyIvPjxlbGxpcHNlIGN4PSIxNTEuMjUiIGN5PSIyMyIgZmlsbD0iI0FERDFCMiIgcng9IjExIiByeT0iMTEiIHN0eWxlPSJzdHJva2U6IzE4MTgxODtzdHJva2Utd2lkdGg6MS4wOyIvPjxwYXRoIGQ9Ik0xNDguODc1LDI3LjI1IEwxNDguODc1LDI5IEwxNTMuODEyNSwyOSBMMTUzLjgxMjUsMjcuMjUgTDE0OC44NzUsMjcuMjUgWiBNMTQ5LjU2MjUsMjcuOTM3NSBRMTQ5LjU2MjUsMjcuOTM3NSAxNDkuNTYyNSwxOC43NSBMMTQ3LjgxMjUsMTguNzUgUTE0Ny44MTI1LDE4Ljc1IDE0Ny44MTI1LDI3LjkzNzUgTDE0OS41NjI1LDI3LjkzNzUgWiBNMTUzLjEyNSwyNy45Mzc1IEwxNTQuODc1LDI3LjkzNzUgUTE1NC44NzUsMjcuOTM3NSAxNTQuODc1LDI1LjEyNSBMMTUzLjEyNSwyNS4xMjUgUTE1My4xMjUsMjUuMTI1IDE1My4xMjUsMjcuOTM3NSBaIE0xNTMuMTI1LDE4Ljc1IFExNTMuMTI1LDE4Ljc1IDE1My4xMjUsMjEuNTYyNSBMMTU0Ljg3NSwyMS41NjI1IFExNTQuODc1LDIxLjU2MjUgMTU0Ljg3NSwxOC43NSBMMTUzLjEyNSwxOC43NSBaIE0xNDguODc1LDE5LjQzNzUgTDE1My44MTI1LDE5LjQzNzUgTDE1My44MTI1LDE3LjY4NzUgTDE0OC44NzUsMTcuNjg3NSBMMTQ4Ljg3NSwxOS40Mzc1IFogIiBmaWxsPSIjMDAwMDAwIi8+PHRleHQgZmlsbD0iIzAwMDAwMCIgZm9udC1mYW1pbHk9InNhbnMtc2VyaWYiIGZvbnQtc2l6ZT0iMTQiIGxlbmd0aEFkanVzdD0ic3BhY2luZyIgdGV4dExlbmd0aD0iOTgiIHg9IjE3MS43NSIgeT0iMjguNzQyMiI+RWRpdG9yQ29udHJvbHM8L3RleHQ+PGxpbmUgc3R5bGU9InN0cm9rZTojMTgxODE4O3N0cm9rZS13aWR0aDowLjU7IiB4MT0iOCIgeDI9IjQwMSIgeTE9IjM5IiB5Mj0iMzkiLz48cmVjdCBmaWxsPSJub25lIiBoZWlnaHQ9IjYiIHN0eWxlPSJzdHJva2U6I0M4MjkzMDtzdHJva2Utd2lkdGg6MS4wOyIgd2lkdGg9IjYiIHg9IjE1IiB5PSI0OC45OTIyIi8+PHRleHQgZmlsbD0iIzAwMDAwMCIgZm9udC1mYW1pbHk9InNhbnMtc2VyaWYiIGZvbnQtc2l6ZT0iMTQiIGxlbmd0aEFkanVzdD0ic3BhY2luZyIgdGV4dExlbmd0aD0iMTEyIiB4PSIyNyIgeT0iNTYuMjM0NCI+ZW5hYmxlZDogYm9vbGVhbjwvdGV4dD48cmVjdCBmaWxsPSJub25lIiBoZWlnaHQ9IjYiIHN0eWxlPSJzdHJva2U6I0M4MjkzMDtzdHJva2Utd2lkdGg6MS4wOyIgd2lkdGg9IjYiIHg9IjE1IiB5PSI2My45NzY2Ii8+PHRleHQgZmlsbD0iIzAwMDAwMCIgZm9udC1mYW1pbHk9InNhbnMtc2VyaWYiIGZvbnQtc2l6ZT0iMTQiIGxlbmd0aEFkanVzdD0ic3BhY2luZyIgdGV4dExlbmd0aD0iMTQ3IiB4PSIyNyIgeT0iNzEuMjE4OCI+Y2VudGVyOiBUSFJFRS5WZWN0b3IzPC90ZXh0PjxyZWN0IGZpbGw9Im5vbmUiIGhlaWdodD0iNiIgc3R5bGU9InN0cm9rZTojQzgyOTMwO3N0cm9rZS13aWR0aDoxLjA7IiB3aWR0aD0iNiIgeD0iMTUiIHk9Ijc4Ljk2MDkiLz48dGV4dCBmaWxsPSIjMDAwMDAwIiBmb250LWZhbWlseT0ic2Fucy1zZXJpZiIgZm9udC1zaXplPSIxNCIgbGVuZ3RoQWRqdXN0PSJzcGFjaW5nIiB0ZXh0TGVuZ3RoPSIxMTMiIHg9IjI3IiB5PSI4Ni4yMDMxIj5wYW5TcGVlZDogbnVtYmVyPC90ZXh0PjxyZWN0IGZpbGw9Im5vbmUiIGhlaWdodD0iNiIgc3R5bGU9InN0cm9rZTojQzgyOTMwO3N0cm9rZS13aWR0aDoxLjA7IiB3aWR0aD0iNiIgeD0iMTUiIHk9IjkzLjk0NTMiLz48dGV4dCBmaWxsPSIjMDAwMDAwIiBmb250LWZhbWlseT0ic2Fucy1zZXJpZiIgZm9udC1zaXplPSIxNCIgbGVuZ3RoQWRqdXN0PSJzcGFjaW5nIiB0ZXh0TGVuZ3RoPSIxMjEiIHg9IjI3IiB5PSIxMDEuMTg3NSI+em9vbVNwZWVkOiBudW1iZXI8L3RleHQ+PHJlY3QgZmlsbD0ibm9uZSIgaGVpZ2h0PSI2IiBzdHlsZT0ic3Ryb2tlOiNDODI5MzA7c3Ryb2tlLXdpZHRoOjEuMDsiIHdpZHRoPSI2IiB4PSIxNSIgeT0iMTA4LjkyOTciLz48dGV4dCBmaWxsPSIjMDAwMDAwIiBmb250LWZhbWlseT0ic2Fucy1zZXJpZiIgZm9udC1zaXplPSIxNCIgbGVuZ3RoQWRqdXN0PSJzcGFjaW5nIiB0ZXh0TGVuZ3RoPSIxNDgiIHg9IjI3IiB5PSIxMTYuMTcxOSI+cm90YXRpb25TcGVlZDogbnVtYmVyPC90ZXh0PjxyZWN0IGZpbGw9Im5vbmUiIGhlaWdodD0iNiIgc3R5bGU9InN0cm9rZTojQzgyOTMwO3N0cm9rZS13aWR0aDoxLjA7IiB3aWR0aD0iNiIgeD0iMTUiIHk9IjEyMy45MTQxIi8+PHRleHQgZmlsbD0iIzAwMDAwMCIgZm9udC1mYW1pbHk9InNhbnMtc2VyaWYiIGZvbnQtc2l6ZT0iMTQiIGxlbmd0aEFkanVzdD0ic3BhY2luZyIgdGV4dExlbmd0aD0iMTQ3IiB4PSIyNyIgeT0iMTMxLjE1NjMiPnNjb3BlOiBFZGl0b3JDb250cm9sczwvdGV4dD48cmVjdCBmaWxsPSJub25lIiBoZWlnaHQ9IjYiIHN0eWxlPSJzdHJva2U6I0M4MjkzMDtzdHJva2Utd2lkdGg6MS4wOyIgd2lkdGg9IjYiIHg9IjE1IiB5PSIxMzguODk4NCIvPjx0ZXh0IGZpbGw9IiMwMDAwMDAiIGZvbnQtZmFtaWx5PSJzYW5zLXNlcmlmIiBmb250LXNpemU9IjE0IiBsZW5ndGhBZGp1c3Q9InNwYWNpbmciIHRleHRMZW5ndGg9IjE0NyIgeD0iMjciIHk9IjE0Ni4xNDA2Ij52ZWN0b3I6IFRIUkVFLlZlY3RvcjM8L3RleHQ+PHJlY3QgZmlsbD0ibm9uZSIgaGVpZ2h0PSI2IiBzdHlsZT0ic3Ryb2tlOiNDODI5MzA7c3Ryb2tlLXdpZHRoOjEuMDsiIHdpZHRoPSI2IiB4PSIxNSIgeT0iMTUzLjg4MjgiLz48dGV4dCBmaWxsPSIjMDAwMDAwIiBmb250LWZhbWlseT0ic2Fucy1zZXJpZiIgZm9udC1zaXplPSIxNCIgbGVuZ3RoQWRqdXN0PSJzcGFjaW5nIiB0ZXh0TGVuZ3RoPSIxNDAiIHg9IjI3IiB5PSIxNjEuMTI1Ij5kZWx0YTogVEhSRUUuVmVjdG9yMzwvdGV4dD48cmVjdCBmaWxsPSJub25lIiBoZWlnaHQ9IjYiIHN0eWxlPSJzdHJva2U6I0M4MjkzMDtzdHJva2Utd2lkdGg6MS4wOyIgd2lkdGg9IjYiIHg9IjE1IiB5PSIxNjguODY3MiIvPjx0ZXh0IGZpbGw9IiMwMDAwMDAiIGZvbnQtZmFtaWx5PSJzYW5zLXNlcmlmIiBmb250LXNpemU9IjE0IiBsZW5ndGhBZGp1c3Q9InNwYWNpbmciIHRleHRMZW5ndGg9IjEwNSIgeD0iMjciIHk9IjE3Ni4xMDk0Ij5ib3g6IFRIUkVFLkJveDM8L3RleHQ+PHJlY3QgZmlsbD0ibm9uZSIgaGVpZ2h0PSI2IiBzdHlsZT0ic3Ryb2tlOiNDODI5MzA7c3Ryb2tlLXdpZHRoOjEuMDsiIHdpZHRoPSI2IiB4PSIxNSIgeT0iMTgzLjg1MTYiLz48dGV4dCBmaWxsPSIjMDAwMDAwIiBmb250LWZhbWlseT0ic2Fucy1zZXJpZiIgZm9udC1zaXplPSIxNCIgbGVuZ3RoQWRqdXN0PSJzcGFjaW5nIiB0ZXh0TGVuZ3RoPSIzMzEiIHg9IjI3IiB5PSIxOTEuMDkzOCI+U1RBVEU6IHsgTk9ORTogLTEsIFJPVEFURTogMCwgWk9PTTogMSwgUEFOOiAyIH08L3RleHQ+PHJlY3QgZmlsbD0ibm9uZSIgaGVpZ2h0PSI2IiBzdHlsZT0ic3Ryb2tlOiNDODI5MzA7c3Ryb2tlLXdpZHRoOjEuMDsiIHdpZHRoPSI2IiB4PSIxNSIgeT0iMTk4LjgzNTkiLz48dGV4dCBmaWxsPSIjMDAwMDAwIiBmb250LWZhbWlseT0ic2Fucy1zZXJpZiIgZm9udC1zaXplPSIxNCIgbGVuZ3RoQWRqdXN0PSJzcGFjaW5nIiB0ZXh0TGVuZ3RoPSI5MiIgeD0iMjciIHk9IjIwNi4wNzgxIj5zdGF0ZTogbnVtYmVyPC90ZXh0PjxyZWN0IGZpbGw9Im5vbmUiIGhlaWdodD0iNiIgc3R5bGU9InN0cm9rZTojQzgyOTMwO3N0cm9rZS13aWR0aDoxLjA7IiB3aWR0aD0iNiIgeD0iMTUiIHk9IjIxMy44MjAzIi8+PHRleHQgZmlsbD0iIzAwMDAwMCIgZm9udC1mYW1pbHk9InNhbnMtc2VyaWYiIGZvbnQtc2l6ZT0iMTQiIGxlbmd0aEFkanVzdD0ic3BhY2luZyIgdGV4dExlbmd0aD0iMTQ3IiB4PSIyNyIgeT0iMjIxLjA2MjUiPmNlbnRlcjogVEhSRUUuVmVjdG9yMzwvdGV4dD48cmVjdCBmaWxsPSJub25lIiBoZWlnaHQ9IjYiIHN0eWxlPSJzdHJva2U6I0M4MjkzMDtzdHJva2Utd2lkdGg6MS4wOyIgd2lkdGg9IjYiIHg9IjE1IiB5PSIyMjguODA0NyIvPjx0ZXh0IGZpbGw9IiMwMDAwMDAiIGZvbnQtZmFtaWx5PSJzYW5zLXNlcmlmIiBmb250LXNpemU9IjE0IiBsZW5ndGhBZGp1c3Q9InNwYWNpbmciIHRleHRMZW5ndGg9IjE5MCIgeD0iMjciIHk9IjIzNi4wNDY5Ij5ub3JtYWxNYXRyaXg6IFRIUkVFLk1hdHJpeDM8L3RleHQ+PHJlY3QgZmlsbD0ibm9uZSIgaGVpZ2h0PSI2IiBzdHlsZT0ic3Ryb2tlOiNDODI5MzA7c3Ryb2tlLXdpZHRoOjEuMDsiIHdpZHRoPSI2IiB4PSIxNSIgeT0iMjQzLjc4OTEiLz48dGV4dCBmaWxsPSIjMDAwMDAwIiBmb250LWZhbWlseT0ic2Fucy1zZXJpZiIgZm9udC1zaXplPSIxNCIgbGVuZ3RoQWRqdXN0PSJzcGFjaW5nIiB0ZXh0TGVuZ3RoPSIxNTQiIHg9IjI3IiB5PSIyNTEuMDMxMyI+cG9pbnRlcjogVEhSRUUuVmVjdG9yMjwvdGV4dD48cmVjdCBmaWxsPSJub25lIiBoZWlnaHQ9IjYiIHN0eWxlPSJzdHJva2U6I0M4MjkzMDtzdHJva2Utd2lkdGg6MS4wOyIgd2lkdGg9IjYiIHg9IjE1IiB5PSIyNTguNzczNCIvPjx0ZXh0IGZpbGw9IiMwMDAwMDAiIGZvbnQtZmFtaWx5PSJzYW5zLXNlcmlmIiBmb250LXNpemU9IjE0IiBsZW5ndGhBZGp1c3Q9InNwYWNpbmciIHRleHRMZW5ndGg9IjE3NSIgeD0iMjciIHk9IjI2Ni4wMTU2Ij5wb2ludGVyT2xkOiBUSFJFRS5WZWN0b3IyPC90ZXh0PjxyZWN0IGZpbGw9Im5vbmUiIGhlaWdodD0iNiIgc3R5bGU9InN0cm9rZTojQzgyOTMwO3N0cm9rZS13aWR0aDoxLjA7IiB3aWR0aD0iNiIgeD0iMTUiIHk9IjI3My43NTc4Ii8+PHRleHQgZmlsbD0iIzAwMDAwMCIgZm9udC1mYW1pbHk9InNhbnMtc2VyaWYiIGZvbnQtc2l6ZT0iMTQiIGxlbmd0aEFkanVzdD0ic3BhY2luZyIgdGV4dExlbmd0aD0iMTgyIiB4PSIyNyIgeT0iMjgxIj5zcGhlcmljYWw6IFRIUkVFLlNwaGVyaWNhbDwvdGV4dD48cmVjdCBmaWxsPSJub25lIiBoZWlnaHQ9IjYiIHN0eWxlPSJzdHJva2U6I0M4MjkzMDtzdHJva2Utd2lkdGg6MS4wOyIgd2lkdGg9IjYiIHg9IjE1IiB5PSIyODguNzQyMiIvPjx0ZXh0IGZpbGw9IiMwMDAwMDAiIGZvbnQtZmFtaWx5PSJzYW5zLXNlcmlmIiBmb250LXNpemU9IjE0IiBsZW5ndGhBZGp1c3Q9InNwYWNpbmciIHRleHRMZW5ndGg9IjE0MCIgeD0iMjciIHk9IjI5NS45ODQ0Ij5zcGhlcmU6IFRIUkVFLlNwaGVyZTwvdGV4dD48cmVjdCBmaWxsPSJub25lIiBoZWlnaHQ9IjYiIHN0eWxlPSJzdHJva2U6I0M4MjkzMDtzdHJva2Utd2lkdGg6MS4wOyIgd2lkdGg9IjYiIHg9IjE1IiB5PSIzMDMuNzI2NiIvPjx0ZXh0IGZpbGw9IiMwMDAwMDAiIGZvbnQtZmFtaWx5PSJzYW5zLXNlcmlmIiBmb250LXNpemU9IjE0IiBsZW5ndGhBZGp1c3Q9InNwYWNpbmciIHRleHRMZW5ndGg9IjIxOSIgeD0iMjciIHk9IjMxMC45Njg4Ij5jaGFuZ2VFdmVudDogeyB0eXBlOiAnY2hhbmdlJyB9PC90ZXh0PjxsaW5lIHN0eWxlPSJzdHJva2U6IzE4MTgxODtzdHJva2Utd2lkdGg6MC41OyIgeDE9IjgiIHgyPSI0MDEiIHkxPSIzMTYuNzE4OCIgeTI9IjMxNi43MTg4Ii8+PGVsbGlwc2UgY3g9IjE4IiBjeT0iMzI5LjcxMDkiIGZpbGw9IiM4NEJFODQiIHJ4PSIzIiByeT0iMyIgc3R5bGU9InN0cm9rZTojMDM4MDQ4O3N0cm9rZS13aWR0aDoxLjA7Ii8+PHRleHQgZmlsbD0iIzAwMDAwMCIgZm9udC1mYW1pbHk9InNhbnMtc2VyaWYiIGZvbnQtc2l6ZT0iMTQiIGxlbmd0aEFkanVzdD0ic3BhY2luZyIgdGV4dExlbmd0aD0iMzY5IiB4PSIyNyIgeT0iMzMzLjk1MzEiPmNvbnN0cnVjdG9yKG9iamVjdDogb2JqZWN0LCBkb21FbGVtZW50OiBIVE1MRWxlbWVudCk8L3RleHQ+PGVsbGlwc2UgY3g9IjE4IiBjeT0iMzQ0LjY5NTMiIGZpbGw9IiM4NEJFODQiIHJ4PSIzIiByeT0iMyIgc3R5bGU9InN0cm9rZTojMDM4MDQ4O3N0cm9rZS13aWR0aDoxLjA7Ii8+PHRleHQgZmlsbD0iIzAwMDAwMCIgZm9udC1mYW1pbHk9InNhbnMtc2VyaWYiIGZvbnQtc2l6ZT0iMTQiIGxlbmd0aEFkanVzdD0ic3BhY2luZyIgdGV4dExlbmd0aD0iMTkxIiB4PSIyNyIgeT0iMzQ4LjkzNzUiPmZvY3VzKHRhcmdldDogb2JqZWN0KTogdm9pZDwvdGV4dD48ZWxsaXBzZSBjeD0iMTgiIGN5PSIzNTkuNjc5NyIgZmlsbD0iIzg0QkU4NCIgcng9IjMiIHJ5PSIzIiBzdHlsZT0ic3Ryb2tlOiMwMzgwNDg7c3Ryb2tlLXdpZHRoOjEuMDsiLz48dGV4dCBmaWxsPSIjMDAwMDAwIiBmb250LWZhbWlseT0ic2Fucy1zZXJpZiIgZm9udC1zaXplPSIxNCIgbGVuZ3RoQWRqdXN0PSJzcGFjaW5nIiB0ZXh0TGVuZ3RoPSIyMTkiIHg9IjI3IiB5PSIzNjMuOTIxOSI+cGFuKGRlbHRhOiBUSFJFRS5WZWN0b3IzKTogdm9pZDwvdGV4dD48ZWxsaXBzZSBjeD0iMTgiIGN5PSIzNzQuNjY0MSIgZmlsbD0iIzg0QkU4NCIgcng9IjMiIHJ5PSIzIiBzdHlsZT0ic3Ryb2tlOiMwMzgwNDg7c3Ryb2tlLXdpZHRoOjEuMDsiLz48dGV4dCBmaWxsPSIjMDAwMDAwIiBmb250LWZhbWlseT0ic2Fucy1zZXJpZiIgZm9udC1zaXplPSIxNCIgbGVuZ3RoQWRqdXN0PSJzcGFjaW5nIiB0ZXh0TGVuZ3RoPSIyMjciIHg9IjI3IiB5PSIzNzguOTA2MyI+em9vbShkZWx0YTogVEhSRUUuVmVjdG9yMyk6IHZvaWQ8L3RleHQ+PGVsbGlwc2UgY3g9IjE4IiBjeT0iMzg5LjY0ODQiIGZpbGw9IiM4NEJFODQiIHJ4PSIzIiByeT0iMyIgc3R5bGU9InN0cm9rZTojMDM4MDQ4O3N0cm9rZS13aWR0aDoxLjA7Ii8+PHRleHQgZmlsbD0iIzAwMDAwMCIgZm9udC1mYW1pbHk9InNhbnMtc2VyaWYiIGZvbnQtc2l6ZT0iMTQiIGxlbmd0aEFkanVzdD0ic3BhY2luZyIgdGV4dExlbmd0aD0iMjQwIiB4PSIyNyIgeT0iMzkzLjg5MDYiPnJvdGF0ZShkZWx0YTogVEhSRUUuVmVjdG9yMyk6IHZvaWQ8L3RleHQ+PGVsbGlwc2UgY3g9IjE4IiBjeT0iNDA0LjYzMjgiIGZpbGw9IiM4NEJFODQiIHJ4PSIzIiByeT0iMyIgc3R5bGU9InN0cm9rZTojMDM4MDQ4O3N0cm9rZS13aWR0aDoxLjA7Ii8+PHRleHQgZmlsbD0iIzAwMDAwMCIgZm9udC1mYW1pbHk9InNhbnMtc2VyaWYiIGZvbnQtc2l6ZT0iMTQiIGxlbmd0aEFkanVzdD0ic3BhY2luZyIgdGV4dExlbmd0aD0iMTA3IiB4PSIyNyIgeT0iNDA4Ljg3NSI+ZGlzcG9zZSgpOiB2b2lkPC90ZXh0PjwvZz48IS0tbGluayBFZGl0b3JDb250cm9scyB0byBFdmVudERpc3BhdGNoZXItLT48ZyBpZD0ibGlua19FZGl0b3JDb250cm9sc19FdmVudERpc3BhdGNoZXIiPjxwYXRoIGNvZGVMaW5lPSIyOSIgZD0iTTIwNC41LDQxNS4yOCBDMjA0LjUsNDI5LjY5IDIwNC41LDQ0My4xMSAyMDQuNSw0NTQuNzYgIiBmaWxsPSJub25lIiBpZD0iRWRpdG9yQ29udHJvbHMtdG8tRXZlbnREaXNwYXRjaGVyIiBzdHlsZT0ic3Ryb2tlOiMxODE4MTg7c3Ryb2tlLXdpZHRoOjEuMDsiLz48cG9seWdvbiBmaWxsPSJub25lIiBwb2ludHM9IjIxMS41LDQ1NC44LDIwNC41LDQ3NC44LDE5Ny41LDQ1NC44LDIxMS41LDQ1NC44IiBzdHlsZT0ic3Ryb2tlOiMxODE4MTg7c3Ryb2tlLXdpZHRoOjEuMDsiLz48L2c+PCEtLVNSQz1bWEw5REptOG40QnR4QS1SNjRiY1pVRWwxMTdLSjNpOFFzN1ptcmtzRUtERmpSRGYyS0ZJX3Mtc29ZQjI2S3BGbDhfRGNFYTluUW80ZmYyRnBHRGVQS1hRczVtMG5lRVF2bWU5MUpnSUd3bTBBcjB1RFdzbXlJdkFoNW5KVVRua09Za2p2WFJMVWh5ZVNKRzBfWVNmSnI5M1pKYkE3dFdnZ2ExdGIyU213akVmZ05BMW9sOGw4UVRGMnp4SGZpN2Fzb1g4Nk12WWNLX182RG1FT2ZHcnNGTzNORDlxbXlEWnBRQ2ZXMkR6REE5eU1feUp5Vm1rUUpDZExYM2laenlzUlFoU2JhZ1ZNdUk2TGdnQUJqVEtJWkhIU2pVSXkxTnZmX0NEWDR0Tjl6R0FKakt6U1otcS13bHRzNmhKZDFfSVlJbjJhaEpFaGtiajQtUmpsb3cxdjFyMUdjSVdpV3QtU0pQdnNISnlPdHFZaVJFSXVNVTNVcWNVbTliYTR0WHo1ckZLX1h2aHdIaXdBbWlkV01MYVhSS0tNZW5ScHludFRUWG5fdFV0eU9JY0Z0aTZUeUZsdzBHMDBdLS0+PC9nPjwvc3ZnPg==;" vertex="1" parent="1">
            <mxGeometry x="850" y="239.45" width="409" height="546" as="geometry" />
          </mxCell>
        </UserObject>
        <UserObject label="" plantUmlData="{&#xa;  &quot;data&quot;: &quot;@startuml\n\nclass Config {\n  - name: string\n  - storage: object\n\n  + constructor()\n  + getKey(key: string): any\n  + setKey(...args: any[]): void\n  + clear(): void\n}\n\nConfig ..&gt; Object\n\n@enduml&quot;,&#xa;  &quot;format&quot;: &quot;svg&quot;&#xa;}" id="PgmvUCnNzQ-OiwYf912T-7">
          <mxCell style="shape=image;noLabel=1;verticalAlign=top;aspect=fixed;imageAspect=0;image=data:image/svg+xml,PD94bWwgdmVyc2lvbj0iMS4wIiBlbmNvZGluZz0idXMtYXNjaWkiIHN0YW5kYWxvbmU9Im5vIj8+PHN2ZyB4bWxucz0iaHR0cDovL3d3dy53My5vcmcvMjAwMC9zdmciIHhtbG5zOnhsaW5rPSJodHRwOi8vd3d3LnczLm9yZy8xOTk5L3hsaW5rIiBjb250ZW50U3R5bGVUeXBlPSJ0ZXh0L2NzcyIgaGVpZ2h0PSIyNjBweCIgcHJlc2VydmVBc3BlY3RSYXRpbz0ibm9uZSIgc3R5bGU9IndpZHRoOjIzOHB4O2hlaWdodDoyNjBweDtiYWNrZ3JvdW5kOiNGRkZGRkY7IiB2ZXJzaW9uPSIxLjEiIHZpZXdCb3g9IjAgMCAyMzggMjYwIiB3aWR0aD0iMjM4cHgiIHpvb21BbmRQYW49Im1hZ25pZnkiPjxkZWZzLz48Zz48IS0tY2xhc3MgQ29uZmlnLS0+PGcgaWQ9ImVsZW1fQ29uZmlnIj48cmVjdCBjb2RlTGluZT0iMSIgZmlsbD0iI0YxRjFGMSIgaGVpZ2h0PSIxMzcuOTA2MyIgaWQ9IkNvbmZpZyIgcng9IjIuNSIgcnk9IjIuNSIgc3R5bGU9InN0cm9rZTojMTgxODE4O3N0cm9rZS13aWR0aDowLjU7IiB3aWR0aD0iMjI0IiB4PSI3IiB5PSI3Ii8+PGVsbGlwc2UgY3g9IjkzLjc1IiBjeT0iMjMiIGZpbGw9IiNBREQxQjIiIHJ4PSIxMSIgcnk9IjExIiBzdHlsZT0ic3Ryb2tlOiMxODE4MTg7c3Ryb2tlLXdpZHRoOjEuMDsiLz48cGF0aCBkPSJNOTEuMzc1LDI3LjI1IEw5MS4zNzUsMjkgTDk2LjMxMjUsMjkgTDk2LjMxMjUsMjcuMjUgTDkxLjM3NSwyNy4yNSBaIE05Mi4wNjI1LDI3LjkzNzUgUTkyLjA2MjUsMjcuOTM3NSA5Mi4wNjI1LDE4Ljc1IEw5MC4zMTI1LDE4Ljc1IFE5MC4zMTI1LDE4Ljc1IDkwLjMxMjUsMjcuOTM3NSBMOTIuMDYyNSwyNy45Mzc1IFogTTk1LjYyNSwyNy45Mzc1IEw5Ny4zNzUsMjcuOTM3NSBROTcuMzc1LDI3LjkzNzUgOTcuMzc1LDI1LjEyNSBMOTUuNjI1LDI1LjEyNSBROTUuNjI1LDI1LjEyNSA5NS42MjUsMjcuOTM3NSBaIE05NS42MjUsMTguNzUgUTk1LjYyNSwxOC43NSA5NS42MjUsMjEuNTYyNSBMOTcuMzc1LDIxLjU2MjUgUTk3LjM3NSwyMS41NjI1IDk3LjM3NSwxOC43NSBMOTUuNjI1LDE4Ljc1IFogTTkxLjM3NSwxOS40Mzc1IEw5Ni4zMTI1LDE5LjQzNzUgTDk2LjMxMjUsMTcuNjg3NSBMOTEuMzc1LDE3LjY4NzUgTDkxLjM3NSwxOS40Mzc1IFogIiBmaWxsPSIjMDAwMDAwIi8+PHRleHQgZmlsbD0iIzAwMDAwMCIgZm9udC1mYW1pbHk9InNhbnMtc2VyaWYiIGZvbnQtc2l6ZT0iMTQiIGxlbmd0aEFkanVzdD0ic3BhY2luZyIgdGV4dExlbmd0aD0iNDIiIHg9IjExNC4yNSIgeT0iMjguNzQyMiI+Q29uZmlnPC90ZXh0PjxsaW5lIHN0eWxlPSJzdHJva2U6IzE4MTgxODtzdHJva2Utd2lkdGg6MC41OyIgeDE9IjgiIHgyPSIyMzAiIHkxPSIzOSIgeTI9IjM5Ii8+PHJlY3QgZmlsbD0ibm9uZSIgaGVpZ2h0PSI2IiBzdHlsZT0ic3Ryb2tlOiNDODI5MzA7c3Ryb2tlLXdpZHRoOjEuMDsiIHdpZHRoPSI2IiB4PSIxNSIgeT0iNDguOTkyMiIvPjx0ZXh0IGZpbGw9IiMwMDAwMDAiIGZvbnQtZmFtaWx5PSJzYW5zLXNlcmlmIiBmb250LXNpemU9IjE0IiBsZW5ndGhBZGp1c3Q9InNwYWNpbmciIHRleHRMZW5ndGg9Ijg1IiB4PSIyNyIgeT0iNTYuMjM0NCI+bmFtZTogc3RyaW5nPC90ZXh0PjxyZWN0IGZpbGw9Im5vbmUiIGhlaWdodD0iNiIgc3R5bGU9InN0cm9rZTojQzgyOTMwO3N0cm9rZS13aWR0aDoxLjA7IiB3aWR0aD0iNiIgeD0iMTUiIHk9IjYzLjk3NjYiLz48dGV4dCBmaWxsPSIjMDAwMDAwIiBmb250LWZhbWlseT0ic2Fucy1zZXJpZiIgZm9udC1zaXplPSIxNCIgbGVuZ3RoQWRqdXN0PSJzcGFjaW5nIiB0ZXh0TGVuZ3RoPSIxMDUiIHg9IjI3IiB5PSI3MS4yMTg4Ij5zdG9yYWdlOiBvYmplY3Q8L3RleHQ+PGxpbmUgc3R5bGU9InN0cm9rZTojMTgxODE4O3N0cm9rZS13aWR0aDowLjU7IiB4MT0iOCIgeDI9IjIzMCIgeTE9Ijc2Ljk2ODgiIHkyPSI3Ni45Njg4Ii8+PGVsbGlwc2UgY3g9IjE4IiBjeT0iODkuOTYwOSIgZmlsbD0iIzg0QkU4NCIgcng9IjMiIHJ5PSIzIiBzdHlsZT0ic3Ryb2tlOiMwMzgwNDg7c3Ryb2tlLXdpZHRoOjEuMDsiLz48dGV4dCBmaWxsPSIjMDAwMDAwIiBmb250LWZhbWlseT0ic2Fucy1zZXJpZiIgZm9udC1zaXplPSIxNCIgbGVuZ3RoQWRqdXN0PSJzcGFjaW5nIiB0ZXh0TGVuZ3RoPSI5MyIgeD0iMjciIHk9Ijk0LjIwMzEiPmNvbnN0cnVjdG9yKCk8L3RleHQ+PGVsbGlwc2UgY3g9IjE4IiBjeT0iMTA0Ljk0NTMiIGZpbGw9IiM4NEJFODQiIHJ4PSIzIiByeT0iMyIgc3R5bGU9InN0cm9rZTojMDM4MDQ4O3N0cm9rZS13aWR0aDoxLjA7Ii8+PHRleHQgZmlsbD0iIzAwMDAwMCIgZm9udC1mYW1pbHk9InNhbnMtc2VyaWYiIGZvbnQtc2l6ZT0iMTQiIGxlbmd0aEFkanVzdD0ic3BhY2luZyIgdGV4dExlbmd0aD0iMTcwIiB4PSIyNyIgeT0iMTA5LjE4NzUiPmdldEtleShrZXk6IHN0cmluZyk6IGFueTwvdGV4dD48ZWxsaXBzZSBjeD0iMTgiIGN5PSIxMTkuOTI5NyIgZmlsbD0iIzg0QkU4NCIgcng9IjMiIHJ5PSIzIiBzdHlsZT0ic3Ryb2tlOiMwMzgwNDg7c3Ryb2tlLXdpZHRoOjEuMDsiLz48dGV4dCBmaWxsPSIjMDAwMDAwIiBmb250LWZhbWlseT0ic2Fucy1zZXJpZiIgZm9udC1zaXplPSIxNCIgbGVuZ3RoQWRqdXN0PSJzcGFjaW5nIiB0ZXh0TGVuZ3RoPSIxOTgiIHg9IjI3IiB5PSIxMjQuMTcxOSI+c2V0S2V5KC4uLmFyZ3M6IGFueVtdKTogdm9pZDwvdGV4dD48ZWxsaXBzZSBjeD0iMTgiIGN5PSIxMzQuOTE0MSIgZmlsbD0iIzg0QkU4NCIgcng9IjMiIHJ5PSIzIiBzdHlsZT0ic3Ryb2tlOiMwMzgwNDg7c3Ryb2tlLXdpZHRoOjEuMDsiLz48dGV4dCBmaWxsPSIjMDAwMDAwIiBmb250LWZhbWlseT0ic2Fucy1zZXJpZiIgZm9udC1zaXplPSIxNCIgbGVuZ3RoQWRqdXN0PSJzcGFjaW5nIiB0ZXh0TGVuZ3RoPSI5MyIgeD0iMjciIHk9IjEzOS4xNTYzIj5jbGVhcigpOiB2b2lkPC90ZXh0PjwvZz48IS0tY2xhc3MgT2JqZWN0LS0+PGcgaWQ9ImVsZW1fT2JqZWN0Ij48cmVjdCBmaWxsPSIjRjFGMUYxIiBoZWlnaHQ9IjQ4IiBpZD0iT2JqZWN0IiByeD0iMi41IiByeT0iMi41IiBzdHlsZT0ic3Ryb2tlOiMxODE4MTg7c3Ryb2tlLXdpZHRoOjAuNTsiIHdpZHRoPSI3NCIgeD0iODIiIHk9IjIwNSIvPjxlbGxpcHNlIGN4PSI5NyIgY3k9IjIyMSIgZmlsbD0iI0FERDFCMiIgcng9IjExIiByeT0iMTEiIHN0eWxlPSJzdHJva2U6IzE4MTgxODtzdHJva2Utd2lkdGg6MS4wOyIvPjxwYXRoIGQ9Ik05NC42MjUsMjI1LjI1IEw5NC42MjUsMjI3IEw5OS41NjI1LDIyNyBMOTkuNTYyNSwyMjUuMjUgTDk0LjYyNSwyMjUuMjUgWiBNOTUuMzEyNSwyMjUuOTM3NSBROTUuMzEyNSwyMjUuOTM3NSA5NS4zMTI1LDIxNi43NSBMOTMuNTYyNSwyMTYuNzUgUTkzLjU2MjUsMjE2Ljc1IDkzLjU2MjUsMjI1LjkzNzUgTDk1LjMxMjUsMjI1LjkzNzUgWiBNOTguODc1LDIyNS45Mzc1IEwxMDAuNjI1LDIyNS45Mzc1IFExMDAuNjI1LDIyNS45Mzc1IDEwMC42MjUsMjIzLjEyNSBMOTguODc1LDIyMy4xMjUgUTk4Ljg3NSwyMjMuMTI1IDk4Ljg3NSwyMjUuOTM3NSBaIE05OC44NzUsMjE2Ljc1IFE5OC44NzUsMjE2Ljc1IDk4Ljg3NSwyMTkuNTYyNSBMMTAwLjYyNSwyMTkuNTYyNSBRMTAwLjYyNSwyMTkuNTYyNSAxMDAuNjI1LDIxNi43NSBMOTguODc1LDIxNi43NSBaIE05NC42MjUsMjE3LjQzNzUgTDk5LjU2MjUsMjE3LjQzNzUgTDk5LjU2MjUsMjE1LjY4NzUgTDk0LjYyNSwyMTUuNjg3NSBMOTQuNjI1LDIxNy40Mzc1IFogIiBmaWxsPSIjMDAwMDAwIi8+PHRleHQgZmlsbD0iIzAwMDAwMCIgZm9udC1mYW1pbHk9InNhbnMtc2VyaWYiIGZvbnQtc2l6ZT0iMTQiIGxlbmd0aEFkanVzdD0ic3BhY2luZyIgdGV4dExlbmd0aD0iNDIiIHg9IjExMSIgeT0iMjI2Ljc0MjIiPk9iamVjdDwvdGV4dD48bGluZSBzdHlsZT0ic3Ryb2tlOiMxODE4MTg7c3Ryb2tlLXdpZHRoOjAuNTsiIHgxPSI4MyIgeDI9IjE1NSIgeTE9IjIzNyIgeTI9IjIzNyIvPjxsaW5lIHN0eWxlPSJzdHJva2U6IzE4MTgxODtzdHJva2Utd2lkdGg6MC41OyIgeDE9IjgzIiB4Mj0iMTU1IiB5MT0iMjQ1IiB5Mj0iMjQ1Ii8+PC9nPjwhLS1saW5rIENvbmZpZyB0byBPYmplY3QtLT48ZyBpZD0ibGlua19Db25maWdfT2JqZWN0Ij48cGF0aCBjb2RlTGluZT0iMTEiIGQ9Ik0xMTksMTQ1LjQzIEMxMTksMTY0LjY0IDExOSwxODQuNDcgMTE5LDE5OS44NyAiIGZpbGw9Im5vbmUiIGlkPSJDb25maWctdG8tT2JqZWN0IiBzdHlsZT0ic3Ryb2tlOiMxODE4MTg7c3Ryb2tlLXdpZHRoOjEuMDtzdHJva2UtZGFzaGFycmF5OjcuMCw3LjA7Ii8+PHBvbHlnb24gZmlsbD0iIzE4MTgxOCIgcG9pbnRzPSIxMTksMjA0LjkyLDEyMywxOTUuOTIsMTE5LDE5OS45MiwxMTUsMTk1LjkyLDExOSwyMDQuOTIiIHN0eWxlPSJzdHJva2U6IzE4MTgxODtzdHJva2Utd2lkdGg6MS4wOyIvPjwvZz48IS0tU1JDPVtET3VuM2k4bTM0TnRkQzlaQXVHRnE4NjVhTzQzODBPSloxS2VaWEc3ZjBYblR3b3FoRV92Xy15dWFuZGlpendJbTJTMFI0N2ZvSERPQktjYjB3a3ZhM1pCYnBsNzZYbms4NlJyYXJUcUR1b1QyRFMzai03MXhQeVU5bzFqTlRlWTRQNkFNRVVkaV9qdEpqVWJSc1JvZmZMeUdyWF9HanAxaVVfLTAwMDBdLS0+PC9nPjwvc3ZnPg==;" vertex="1" parent="1">
            <mxGeometry x="2" y="630" width="238" height="260" as="geometry" />
          </mxCell>
        </UserObject>
        <UserObject label="" plantUmlData="{&#xa;  &quot;data&quot;: &quot;@startuml\n\nclass Task {\n  + constructor(editor: object)\n  + execute(): void\n  + undo(): void\n  + toJSON(): object\n  + fromJSON(json: object): void\n}\n\nclass AddObjectTask {\n  + constructor(editor: object, object: object)\n  + execute(): void\n  + undo(): void\n  + toJSON(): object\n  + fromJSON(json: object): void\n}\n\nAddObjectTask --|&gt; Task\n\n@enduml&quot;,&#xa;  &quot;format&quot;: &quot;svg&quot;&#xa;}" id="PgmvUCnNzQ-OiwYf912T-8">
          <mxCell style="shape=image;noLabel=1;verticalAlign=top;aspect=fixed;imageAspect=0;image=data:image/svg+xml,PD94bWwgdmVyc2lvbj0iMS4wIiBlbmNvZGluZz0idXMtYXNjaWkiIHN0YW5kYWxvbmU9Im5vIj8+PHN2ZyB4bWxucz0iaHR0cDovL3d3dy53My5vcmcvMjAwMC9zdmciIHhtbG5zOnhsaW5rPSJodHRwOi8vd3d3LnczLm9yZy8xOTk5L3hsaW5rIiBjb250ZW50U3R5bGVUeXBlPSJ0ZXh0L2NzcyIgaGVpZ2h0PSIzMTlweCIgcHJlc2VydmVBc3BlY3RSYXRpbz0ibm9uZSIgc3R5bGU9IndpZHRoOjM0M3B4O2hlaWdodDozMTlweDtiYWNrZ3JvdW5kOiNGRkZGRkY7IiB2ZXJzaW9uPSIxLjEiIHZpZXdCb3g9IjAgMCAzNDMgMzE5IiB3aWR0aD0iMzQzcHgiIHpvb21BbmRQYW49Im1hZ25pZnkiPjxkZWZzLz48Zz48IS0tY2xhc3MgVGFzay0tPjxnIGlkPSJlbGVtX1Rhc2siPjxyZWN0IGNvZGVMaW5lPSIxIiBmaWxsPSIjRjFGMUYxIiBoZWlnaHQ9IjEyMi45MjE5IiBpZD0iVGFzayIgcng9IjIuNSIgcnk9IjIuNSIgc3R5bGU9InN0cm9rZTojMTgxODE4O3N0cm9rZS13aWR0aDowLjU7IiB3aWR0aD0iMjI2IiB4PSI1OC41IiB5PSIxOTAiLz48ZWxsaXBzZSBjeD0iMTUzLjI1IiBjeT0iMjA2IiBmaWxsPSIjQUREMUIyIiByeD0iMTEiIHJ5PSIxMSIgc3R5bGU9InN0cm9rZTojMTgxODE4O3N0cm9rZS13aWR0aDoxLjA7Ii8+PHBhdGggZD0iTTE1MC44NzUsMjEwLjI1IEwxNTAuODc1LDIxMiBMMTU1LjgxMjUsMjEyIEwxNTUuODEyNSwyMTAuMjUgTDE1MC44NzUsMjEwLjI1IFogTTE1MS41NjI1LDIxMC45Mzc1IFExNTEuNTYyNSwyMTAuOTM3NSAxNTEuNTYyNSwyMDEuNzUgTDE0OS44MTI1LDIwMS43NSBRMTQ5LjgxMjUsMjAxLjc1IDE0OS44MTI1LDIxMC45Mzc1IEwxNTEuNTYyNSwyMTAuOTM3NSBaIE0xNTUuMTI1LDIxMC45Mzc1IEwxNTYuODc1LDIxMC45Mzc1IFExNTYuODc1LDIxMC45Mzc1IDE1Ni44NzUsMjA4LjEyNSBMMTU1LjEyNSwyMDguMTI1IFExNTUuMTI1LDIwOC4xMjUgMTU1LjEyNSwyMTAuOTM3NSBaIE0xNTUuMTI1LDIwMS43NSBRMTU1LjEyNSwyMDEuNzUgMTU1LjEyNSwyMDQuNTYyNSBMMTU2Ljg3NSwyMDQuNTYyNSBRMTU2Ljg3NSwyMDQuNTYyNSAxNTYuODc1LDIwMS43NSBMMTU1LjEyNSwyMDEuNzUgWiBNMTUwLjg3NSwyMDIuNDM3NSBMMTU1LjgxMjUsMjAyLjQzNzUgTDE1NS44MTI1LDIwMC42ODc1IEwxNTAuODc1LDIwMC42ODc1IEwxNTAuODc1LDIwMi40Mzc1IFogIiBmaWxsPSIjMDAwMDAwIi8+PHRleHQgZmlsbD0iIzAwMDAwMCIgZm9udC1mYW1pbHk9InNhbnMtc2VyaWYiIGZvbnQtc2l6ZT0iMTQiIGxlbmd0aEFkanVzdD0ic3BhY2luZyIgdGV4dExlbmd0aD0iMjgiIHg9IjE3My43NSIgeT0iMjExLjc0MjIiPlRhc2s8L3RleHQ+PGxpbmUgc3R5bGU9InN0cm9rZTojMTgxODE4O3N0cm9rZS13aWR0aDowLjU7IiB4MT0iNTkuNSIgeDI9IjI4My41IiB5MT0iMjIyIiB5Mj0iMjIyIi8+PGxpbmUgc3R5bGU9InN0cm9rZTojMTgxODE4O3N0cm9rZS13aWR0aDowLjU7IiB4MT0iNTkuNSIgeDI9IjI4My41IiB5MT0iMjMwIiB5Mj0iMjMwIi8+PGVsbGlwc2UgY3g9IjY5LjUiIGN5PSIyNDIuOTkyMiIgZmlsbD0iIzg0QkU4NCIgcng9IjMiIHJ5PSIzIiBzdHlsZT0ic3Ryb2tlOiMwMzgwNDg7c3Ryb2tlLXdpZHRoOjEuMDsiLz48dGV4dCBmaWxsPSIjMDAwMDAwIiBmb250LWZhbWlseT0ic2Fucy1zZXJpZiIgZm9udC1zaXplPSIxNCIgbGVuZ3RoQWRqdXN0PSJzcGFjaW5nIiB0ZXh0TGVuZ3RoPSIxOTEiIHg9Ijc4LjUiIHk9IjI0Ny4yMzQ0Ij5jb25zdHJ1Y3RvcihlZGl0b3I6IG9iamVjdCk8L3RleHQ+PGVsbGlwc2UgY3g9IjY5LjUiIGN5PSIyNTcuOTc2NiIgZmlsbD0iIzg0QkU4NCIgcng9IjMiIHJ5PSIzIiBzdHlsZT0ic3Ryb2tlOiMwMzgwNDg7c3Ryb2tlLXdpZHRoOjEuMDsiLz48dGV4dCBmaWxsPSIjMDAwMDAwIiBmb250LWZhbWlseT0ic2Fucy1zZXJpZiIgZm9udC1zaXplPSIxNCIgbGVuZ3RoQWRqdXN0PSJzcGFjaW5nIiB0ZXh0TGVuZ3RoPSIxMDciIHg9Ijc4LjUiIHk9IjI2Mi4yMTg4Ij5leGVjdXRlKCk6IHZvaWQ8L3RleHQ+PGVsbGlwc2UgY3g9IjY5LjUiIGN5PSIyNzIuOTYwOSIgZmlsbD0iIzg0QkU4NCIgcng9IjMiIHJ5PSIzIiBzdHlsZT0ic3Ryb2tlOiMwMzgwNDg7c3Ryb2tlLXdpZHRoOjEuMDsiLz48dGV4dCBmaWxsPSIjMDAwMDAwIiBmb250LWZhbWlseT0ic2Fucy1zZXJpZiIgZm9udC1zaXplPSIxNCIgbGVuZ3RoQWRqdXN0PSJzcGFjaW5nIiB0ZXh0TGVuZ3RoPSI4NiIgeD0iNzguNSIgeT0iMjc3LjIwMzEiPnVuZG8oKTogdm9pZDwvdGV4dD48ZWxsaXBzZSBjeD0iNjkuNSIgY3k9IjI4Ny45NDUzIiBmaWxsPSIjODRCRTg0IiByeD0iMyIgcnk9IjMiIHN0eWxlPSJzdHJva2U6IzAzODA0ODtzdHJva2Utd2lkdGg6MS4wOyIvPjx0ZXh0IGZpbGw9IiMwMDAwMDAiIGZvbnQtZmFtaWx5PSJzYW5zLXNlcmlmIiBmb250LXNpemU9IjE0IiBsZW5ndGhBZGp1c3Q9InNwYWNpbmciIHRleHRMZW5ndGg9IjExNSIgeD0iNzguNSIgeT0iMjkyLjE4NzUiPnRvSlNPTigpOiBvYmplY3Q8L3RleHQ+PGVsbGlwc2UgY3g9IjY5LjUiIGN5PSIzMDIuOTI5NyIgZmlsbD0iIzg0QkU4NCIgcng9IjMiIHJ5PSIzIiBzdHlsZT0ic3Ryb2tlOiMwMzgwNDg7c3Ryb2tlLXdpZHRoOjEuMDsiLz48dGV4dCBmaWxsPSIjMDAwMDAwIiBmb250LWZhbWlseT0ic2Fucy1zZXJpZiIgZm9udC1zaXplPSIxNCIgbGVuZ3RoQWRqdXN0PSJzcGFjaW5nIiB0ZXh0TGVuZ3RoPSIyMDAiIHg9Ijc4LjUiIHk9IjMwNy4xNzE5Ij5mcm9tSlNPTihqc29uOiBvYmplY3QpOiB2b2lkPC90ZXh0PjwvZz48IS0tY2xhc3MgQWRkT2JqZWN0VGFzay0tPjxnIGlkPSJlbGVtX0FkZE9iamVjdFRhc2siPjxyZWN0IGNvZGVMaW5lPSI5IiBmaWxsPSIjRjFGMUYxIiBoZWlnaHQ9IjEyMi45MjE5IiBpZD0iQWRkT2JqZWN0VGFzayIgcng9IjIuNSIgcnk9IjIuNSIgc3R5bGU9InN0cm9rZTojMTgxODE4O3N0cm9rZS13aWR0aDowLjU7IiB3aWR0aD0iMzI5IiB4PSI3IiB5PSI3Ii8+PGVsbGlwc2UgY3g9IjEyMS43NSIgY3k9IjIzIiBmaWxsPSIjQUREMUIyIiByeD0iMTEiIHJ5PSIxMSIgc3R5bGU9InN0cm9rZTojMTgxODE4O3N0cm9rZS13aWR0aDoxLjA7Ii8+PHBhdGggZD0iTTExOS4zNzUsMjcuMjUgTDExOS4zNzUsMjkgTDEyNC4zMTI1LDI5IEwxMjQuMzEyNSwyNy4yNSBMMTE5LjM3NSwyNy4yNSBaIE0xMjAuMDYyNSwyNy45Mzc1IFExMjAuMDYyNSwyNy45Mzc1IDEyMC4wNjI1LDE4Ljc1IEwxMTguMzEyNSwxOC43NSBRMTE4LjMxMjUsMTguNzUgMTE4LjMxMjUsMjcuOTM3NSBMMTIwLjA2MjUsMjcuOTM3NSBaIE0xMjMuNjI1LDI3LjkzNzUgTDEyNS4zNzUsMjcuOTM3NSBRMTI1LjM3NSwyNy45Mzc1IDEyNS4zNzUsMjUuMTI1IEwxMjMuNjI1LDI1LjEyNSBRMTIzLjYyNSwyNS4xMjUgMTIzLjYyNSwyNy45Mzc1IFogTTEyMy42MjUsMTguNzUgUTEyMy42MjUsMTguNzUgMTIzLjYyNSwyMS41NjI1IEwxMjUuMzc1LDIxLjU2MjUgUTEyNS4zNzUsMjEuNTYyNSAxMjUuMzc1LDE4Ljc1IEwxMjMuNjI1LDE4Ljc1IFogTTExOS4zNzUsMTkuNDM3NSBMMTI0LjMxMjUsMTkuNDM3NSBMMTI0LjMxMjUsMTcuNjg3NSBMMTE5LjM3NSwxNy42ODc1IEwxMTkuMzc1LDE5LjQzNzUgWiAiIGZpbGw9IiMwMDAwMDAiLz48dGV4dCBmaWxsPSIjMDAwMDAwIiBmb250LWZhbWlseT0ic2Fucy1zZXJpZiIgZm9udC1zaXplPSIxNCIgbGVuZ3RoQWRqdXN0PSJzcGFjaW5nIiB0ZXh0TGVuZ3RoPSI5MSIgeD0iMTQyLjI1IiB5PSIyOC43NDIyIj5BZGRPYmplY3RUYXNrPC90ZXh0PjxsaW5lIHN0eWxlPSJzdHJva2U6IzE4MTgxODtzdHJva2Utd2lkdGg6MC41OyIgeDE9IjgiIHgyPSIzMzUiIHkxPSIzOSIgeTI9IjM5Ii8+PGxpbmUgc3R5bGU9InN0cm9rZTojMTgxODE4O3N0cm9rZS13aWR0aDowLjU7IiB4MT0iOCIgeDI9IjMzNSIgeTE9IjQ3IiB5Mj0iNDciLz48ZWxsaXBzZSBjeD0iMTgiIGN5PSI1OS45OTIyIiBmaWxsPSIjODRCRTg0IiByeD0iMyIgcnk9IjMiIHN0eWxlPSJzdHJva2U6IzAzODA0ODtzdHJva2Utd2lkdGg6MS4wOyIvPjx0ZXh0IGZpbGw9IiMwMDAwMDAiIGZvbnQtZmFtaWx5PSJzYW5zLXNlcmlmIiBmb250LXNpemU9IjE0IiBsZW5ndGhBZGp1c3Q9InNwYWNpbmciIHRleHRMZW5ndGg9IjMwMyIgeD0iMjciIHk9IjY0LjIzNDQiPmNvbnN0cnVjdG9yKGVkaXRvcjogb2JqZWN0LCBvYmplY3Q6IG9iamVjdCk8L3RleHQ+PGVsbGlwc2UgY3g9IjE4IiBjeT0iNzQuOTc2NiIgZmlsbD0iIzg0QkU4NCIgcng9IjMiIHJ5PSIzIiBzdHlsZT0ic3Ryb2tlOiMwMzgwNDg7c3Ryb2tlLXdpZHRoOjEuMDsiLz48dGV4dCBmaWxsPSIjMDAwMDAwIiBmb250LWZhbWlseT0ic2Fucy1zZXJpZiIgZm9udC1zaXplPSIxNCIgbGVuZ3RoQWRqdXN0PSJzcGFjaW5nIiB0ZXh0TGVuZ3RoPSIxMDciIHg9IjI3IiB5PSI3OS4yMTg4Ij5leGVjdXRlKCk6IHZvaWQ8L3RleHQ+PGVsbGlwc2UgY3g9IjE4IiBjeT0iODkuOTYwOSIgZmlsbD0iIzg0QkU4NCIgcng9IjMiIHJ5PSIzIiBzdHlsZT0ic3Ryb2tlOiMwMzgwNDg7c3Ryb2tlLXdpZHRoOjEuMDsiLz48dGV4dCBmaWxsPSIjMDAwMDAwIiBmb250LWZhbWlseT0ic2Fucy1zZXJpZiIgZm9udC1zaXplPSIxNCIgbGVuZ3RoQWRqdXN0PSJzcGFjaW5nIiB0ZXh0TGVuZ3RoPSI4NiIgeD0iMjciIHk9Ijk0LjIwMzEiPnVuZG8oKTogdm9pZDwvdGV4dD48ZWxsaXBzZSBjeD0iMTgiIGN5PSIxMDQuOTQ1MyIgZmlsbD0iIzg0QkU4NCIgcng9IjMiIHJ5PSIzIiBzdHlsZT0ic3Ryb2tlOiMwMzgwNDg7c3Ryb2tlLXdpZHRoOjEuMDsiLz48dGV4dCBmaWxsPSIjMDAwMDAwIiBmb250LWZhbWlseT0ic2Fucy1zZXJpZiIgZm9udC1zaXplPSIxNCIgbGVuZ3RoQWRqdXN0PSJzcGFjaW5nIiB0ZXh0TGVuZ3RoPSIxMTUiIHg9IjI3IiB5PSIxMDkuMTg3NSI+dG9KU09OKCk6IG9iamVjdDwvdGV4dD48ZWxsaXBzZSBjeD0iMTgiIGN5PSIxMTkuOTI5NyIgZmlsbD0iIzg0QkU4NCIgcng9IjMiIHJ5PSIzIiBzdHlsZT0ic3Ryb2tlOiMwMzgwNDg7c3Ryb2tlLXdpZHRoOjEuMDsiLz48dGV4dCBmaWxsPSIjMDAwMDAwIiBmb250LWZhbWlseT0ic2Fucy1zZXJpZiIgZm9udC1zaXplPSIxNCIgbGVuZ3RoQWRqdXN0PSJzcGFjaW5nIiB0ZXh0TGVuZ3RoPSIyMDAiIHg9IjI3IiB5PSIxMjQuMTcxOSI+ZnJvbUpTT04oanNvbjogb2JqZWN0KTogdm9pZDwvdGV4dD48L2c+PCEtLWxpbmsgQWRkT2JqZWN0VGFzayB0byBUYXNrLS0+PGcgaWQ9ImxpbmtfQWRkT2JqZWN0VGFza19UYXNrIj48cGF0aCBjb2RlTGluZT0iMTciIGQ9Ik0xNzEuNSwxMzAuMDIgQzE3MS41LDE0Mi42MyAxNzEuNSwxNTYuMTIgMTcxLjUsMTY5LjM0ICIgZmlsbD0ibm9uZSIgaWQ9IkFkZE9iamVjdFRhc2stdG8tVGFzayIgc3R5bGU9InN0cm9rZTojMTgxODE4O3N0cm9rZS13aWR0aDoxLjA7Ii8+PHBvbHlnb24gZmlsbD0ibm9uZSIgcG9pbnRzPSIxNzguNSwxNjkuNzMsMTcxLjUsMTg5LjczLDE2NC41LDE2OS43MywxNzguNSwxNjkuNzMiIHN0eWxlPSJzdHJva2U6IzE4MTgxODtzdHJva2Utd2lkdGg6MS4wOyIvPjwvZz48IS0tU1JDPVtJeXY5QjJ2TTI0YWlwYlFldmI5R3E1UDhwaXloQllhZ0pJeDlCejk4SlNhNEtiT0EtS2JQZ1NhYmNjM3ZyOGhLdkRBSUwwckRBdU1vX0NtS2k1WGZOYWUtWWExOWxiVW1sbno4MkE4TEI5WE1iOXlCNWl1Z3BpLTM2bWhMTFNsNWJHbnNZY0RBWVp6T1hZV3R3SzFmVWhhSHJOTXdrWkxzdUIwMzAwMDBdLS0+PC9nPjwvc3ZnPg==;" vertex="1" parent="1">
            <mxGeometry x="250" y="724.45" width="343" height="319" as="geometry" />
          </mxCell>
        </UserObject>
        <mxCell id="PgmvUCnNzQ-OiwYf912T-9" style="edgeStyle=orthogonalEdgeStyle;rounded=0;orthogonalLoop=1;jettySize=auto;html=1;exitX=1;exitY=0.75;exitDx=0;exitDy=0;" edge="1" parent="1" source="PgmvUCnNzQ-OiwYf912T-2" target="PgmvUCnNzQ-OiwYf912T-2">
          <mxGeometry relative="1" as="geometry" />
        </mxCell>
      </root>
    </mxGraphModel>
  </diagram>
</mxfile>
